<svg width="380" height="457" viewBox="0 0 380 457" fill="none" xmlns="http://www.w3.org/2000/svg">
<g clip-path="url(#clip0)">
<rect width="380" height="457" rx="10" fill="url(#paint0_linear)"/>
<path d="M-168.303 609.336L813 270.657M847.317 258.813L839.146 261.633M-168.303 702.482L839.146 261.633M839.146 261.633L813 270.657M16.3554 730.263L734.561 315.91M813 270.657L734.561 315.91M214.087 730.263L690.439 351.036M734.561 315.91L690.439 351.036M359.525 730.263L668.245 376.471M690.439 351.036L668.245 376.471M463.293 730.263L652.151 404.251M668.245 376.471L652.151 404.251M529.476 730.263L629.707 463.898M652.151 404.251L629.707 463.898M571.147 730.263L613.72 536.617M629.707 463.898L613.72 536.617M605.464 730.263L613.72 536.617M-168.303 545.605L847.317 250.642M-168.303 499.849L847.317 240.02M-168.303 467.983L847.317 225.313M-168.303 447.556L847.317 208.971M847.317 189.362L-168.303 436.934M847.317 170.569L-44.1079 400.059M-168.303 432.032L-44.1079 400.059M847.317 151.776L-24.4982 394.597M-44.1079 400.059L-24.4982 394.597M847.317 132.167L53.1236 371.232M-24.4982 394.597L53.1236 371.232M847.317 110.106L130.745 345.71M53.1236 371.232L130.745 345.71M847.317 89.679L202.648 320.019M130.745 345.71L202.648 320.019M847.317 66.801L245.952 303.01M202.648 320.019L245.952 303.01M847.317 43.1059L281.904 287.472M245.952 303.01L281.904 287.472M847.317 21.8621L305.599 276.341M281.904 287.472L305.599 276.341M847.317 -3.46714L321.94 267.9M305.599 276.341L321.94 267.9M847.317 -27.9793L340.733 257.317M321.94 267.9L340.733 257.317M847.317 -53.3085L351.618 250.642M340.733 257.317L351.618 250.642M847.317 -81.906C833.813 -72.9036 521.535 136.625 359.525 245.336M351.618 250.642C354.212 248.902 356.848 247.133 359.525 245.336M847.317 -108.869L370.964 237.03M359.525 245.336L370.964 237.03M847.317 -139.101L370.964 237.03M847.317 -170.15L380.769 225.313L387.306 219.303M847.317 -203.65L387.306 219.303M847.317 -240.418L411.001 195.623M387.306 219.303L411.001 195.623M847.317 -279.637L424.25 181.191M411.001 195.623L424.25 181.191M847.317 -318.857L429.089 175.471M424.25 181.191L429.089 175.471M847.317 -365.43L429.089 175.471M847.317 -414.454L442.522 151.776M435.513 161.581L442.522 151.776M847.317 -469.198L442.522 151.776M847.317 -532.929L450.803 132.167M442.522 146.057L449.075 135.066M843.232 -599.929L450.803 132.167M450.803 132.167L449.075 135.066M805.646 -599.929L454.445 123.996M449.075 135.066L454.445 123.996M769.695 -599.929L454.445 123.996M733.744 -599.929L454.445 110.106L461.54 89.679M461.54 89.679L701.061 -599.929H668.378L466.442 73.3376M461.54 89.679L466.442 73.3376M642.232 -599.929L466.442 73.3376M466.442 73.3376L469.316 60.2644M614.452 -599.929L469.316 60.2644M587.488 -599.929L473.118 39.0206M469.316 60.2644L473.118 39.0206M564.61 -599.929L474.171 31.6669M473.118 39.0206L474.171 31.6669M543.366 -599.929L475.245 21.8621M474.171 31.6669L475.245 21.8621M525.391 -599.929L477.815 -10.0037M475.245 21.8621L477.815 -10.0037M505.781 -599.929L485.02 -161.979M477.815 -10.0037L485.02 -161.979M482.086 -599.929L484.965 -170.15M485.02 -161.979L484.965 -170.15M466.442 -599.929L484.965 -170.15" stroke="#5AB3F9" stroke-width="1.05574"/>
<path d="M844.867 253.093L766.428 297.215M844.867 176.289L709.233 334.8M844.867 75.7888L679.818 363.398M844.867 -122.76L649.587 411.605M844.867 -543.551L631.611 458.995M733.745 -601.563L620.172 499.849M640.599 -601.563L611.184 552.141M576.05 -601.563L603.013 642.019M529.477 -601.563L598.111 732.714M584.221 732.714L500.88 -601.563H488.623L567.879 732.714H549.904L471.465 -601.563M530.294 728.629L487.806 -219.174M509.05 728.629L487.806 -72.1011M486.989 728.629L481.27 -45.9548M464.111 728.629L475.32 52.0937M475.55 38.2035L475.32 52.0937M439.599 728.629L475.32 52.0937M416.721 728.629L469.831 67.618M393.026 728.629L464.111 101.935M366.88 728.629L456.741 106.02M458.392 94.5814L456.741 106.02M341.551 728.629L456.741 106.02M318.673 728.629L439.599 163.258M444.502 140.337L439.599 163.258M293.343 728.629L439.599 163.258M265.563 728.629L431.703 170.569M433.88 163.258L431.703 170.569M241.051 728.629L431.703 170.569M215.722 728.629L416.721 199.224M423.258 182.008L418.294 195.081M184.673 728.629L416.721 199.224M416.721 199.224L418.294 195.081M157.71 728.629L416.721 198.302M418.294 195.081L416.721 198.302M126.661 728.629L416.721 198.302M97.2463 728.629L399.855 217.142M411.002 198.302L399.855 217.142M65.3805 728.629L399.855 217.142M32.6977 728.629L391.397 223.672L390.183 222.045L-0.802284 728.629H-36.7534L385.96 222.045L363.227 244.923M363.227 244.923L-76.7899 728.629H-116.826L363.227 244.923ZM-158.497 728.629L348.087 253.093L333.701 262.734M333.701 262.734L-168.302 698.397V656.727L333.701 262.734ZM-168.302 627.312L324.728 266.429L308.892 274.936L-168.302 597.897V570.117L293.343 282.508L259.843 300.544M259.843 300.544L-168.302 545.605V521.093L259.843 300.544ZM-168.302 499.849L267.718 294.407L215.459 315.521L-168.302 482.69V467.166L145.78 340.331L88.5894 359.862L-171.122 452.987L-168.302 441.837L-36.7534 397.715" stroke="#5AB3F9" stroke-width="1.05574"/>
</g>
<defs>
<linearGradient id="paint0_linear" x1="190" y1="0" x2="190" y2="457" gradientUnits="userSpaceOnUse">
<stop stop-color="#58B5F8"/>
<stop offset="1" stop-color="#8B58F8"/>
</linearGradient>
<clipPath id="clip0">
<rect width="380" height="457" rx="10" fill="white"/>
</clipPath>
</defs>
</svg>
