<svg width="582" height="340" viewBox="0 0 582 340" fill="none" xmlns="http://www.w3.org/2000/svg">
<g clip-path="url(#clip0)">
<path d="M0 20C0 10.5719 0 5.85786 2.92893 2.92893C5.85786 0 10.5719 0 20 0H562C571.428 0 576.142 0 579.071 2.92893C582 5.85786 582 10.5719 582 20V320C582 329.428 582 334.142 579.071 337.071C576.142 340 571.428 340 562 340H20C10.5719 340 5.85786 340 2.92893 337.071C0 334.142 0 329.428 0 320V20Z" fill="url(#paint0_linear)"/>
<path d="M-19.2605 338.986C-12.4747 350.132 41.3872 396.479 112.214 396.479C183.04 396.479 250.898 362.159 304.336 339.28" stroke="#208DFA" stroke-width="4.87902" stroke-linecap="round"/>
<path d="M-19.2605 324.906C-12.4747 336.052 41.3872 382.399 112.214 382.399C183.04 382.399 250.898 348.079 304.336 325.2" stroke="#208DFA" stroke-width="4.24262" stroke-linecap="round"/>
<path d="M-19.2605 310.239C-12.4747 321.386 41.3872 367.732 112.214 367.732C183.04 367.732 250.898 333.413 304.336 310.533" stroke="#208DFA" stroke-width="3.7123" stroke-linecap="round"/>
<path d="M-19.2605 295.573C-12.4747 306.72 41.3872 353.066 112.214 353.066C183.04 353.066 250.898 318.746 304.336 295.867" stroke="#208DFA" stroke-width="3.18197" stroke-linecap="round"/>
<path d="M-19.2605 280.906C-12.4747 292.053 41.3872 338.399 112.214 338.399C183.04 338.399 250.898 304.079 304.336 281.2" stroke="#208DFA" stroke-width="2.65164" stroke-linecap="round"/>
<path d="M-19.2605 266.24C-12.4747 277.386 41.3872 323.733 112.214 323.733C183.04 323.733 250.898 289.413 304.336 266.534" stroke="#208DFA" stroke-width="2.12131" stroke-linecap="round"/>
<path d="M-19.2605 251.573C-12.4747 262.719 41.3872 309.066 112.214 309.066C183.04 309.066 250.898 274.746 304.336 251.867" stroke="#208DFA" stroke-width="1.59098" stroke-linecap="round"/>
<path d="M-19.2605 236.906C-12.4747 248.053 41.3872 294.4 112.214 294.399C183.04 294.399 250.898 260.08 304.336 237.2" stroke="#208DFA" stroke-width="1.06066" stroke-linecap="round"/>
<path d="M594 340.159C587.214 351.306 533.776 395.892 462.526 397.652C406.675 399.032 320.073 362.922 285.248 347.248" stroke="#22E085" stroke-width="5.30328" stroke-linecap="round"/>
<path d="M594 325.493C587.214 336.639 533.776 381.226 462.526 382.986C406.675 384.365 320.073 348.255 285.248 332.582" stroke="#22E085" stroke-width="4.77295" stroke-linecap="round"/>
<path d="M594 310.826C587.214 321.972 533.776 366.559 462.526 368.319C406.675 369.698 320.073 333.588 285.248 317.915" stroke="#22E085" stroke-width="4.24262" stroke-linecap="round"/>
<path d="M594 296.746C587.214 307.893 533.776 352.479 462.526 354.239C406.675 355.619 320.073 319.509 285.248 303.835" stroke="#22E085" stroke-width="3.7123" stroke-linecap="round"/>
<path d="M594 282.079C587.214 293.226 533.776 337.812 462.526 339.572C406.675 340.952 320.073 304.842 285.248 289.169" stroke="#22E085" stroke-width="3.18197" stroke-linecap="round"/>
<path d="M594 267.413C587.214 278.56 533.776 323.146 462.526 324.906C406.675 326.286 320.073 290.175 285.248 274.502" stroke="#22E085" stroke-width="2.65164" stroke-linecap="round"/>
<path d="M594 252.746C587.214 263.893 533.776 308.479 462.526 310.239C406.675 311.619 320.073 275.509 285.248 259.835" stroke="#22E085" stroke-width="2.12131" stroke-linecap="round"/>
<path d="M594 238.08C587.214 249.226 533.776 293.813 462.526 295.573C406.675 296.952 320.073 260.842 285.248 245.169" stroke="#22E085" stroke-width="1.59098" stroke-linecap="round"/>
<path d="M594 223.413C587.214 234.56 533.776 279.146 462.526 280.906C406.675 282.286 320.073 246.176 285.248 230.503" stroke="#22E085" stroke-width="1.06066" stroke-linecap="round"/>
<path d="M593.166 267.192C586.38 256.045 532.519 209.699 461.692 209.699C390.866 209.699 323.008 244.018 269.57 266.898" stroke="#208DFA" stroke-width="1.59098" stroke-linecap="round"/>
<path d="M593.152 281.493C586.366 270.347 532.504 224 461.678 224C390.852 224.001 322.994 258.32 269.556 281.199" stroke="#208DFA" stroke-width="2.12131" stroke-linecap="round"/>
<path d="M593.152 296.16C586.366 285.013 532.504 238.667 461.678 238.667C390.852 238.667 322.994 272.986 269.556 295.866" stroke="#208DFA" stroke-width="2.65164" stroke-linecap="round"/>
<path d="M593.152 310.827C586.366 299.68 532.504 253.334 461.678 253.334C390.852 253.334 322.994 287.653 269.556 310.533" stroke="#208DFA" stroke-width="3.18197" stroke-linecap="round"/>
<path d="M593.152 325.493C586.366 314.346 532.504 268 461.678 268C390.852 268 322.994 302.32 269.556 325.199" stroke="#208DFA" stroke-width="3.7123" stroke-linecap="round"/>
<path d="M593.152 340.159C586.366 329.013 532.504 282.666 461.678 282.667C390.852 282.667 322.994 316.986 269.556 339.865" stroke="#208DFA" stroke-width="4.24262" stroke-linecap="round"/>
<path d="M593.152 354.826C586.366 343.68 532.504 297.333 461.678 297.333C390.852 297.333 322.994 331.653 269.556 354.532" stroke="#208DFA" stroke-width="4.87902" stroke-linecap="round"/>
<path d="M593.152 368.906C586.366 357.76 532.504 311.413 461.678 311.413C390.852 311.413 322.994 345.733 269.556 368.612" stroke="#208DFA" stroke-width="5.30328" stroke-linecap="round"/>
<path d="M593.152 383.573C586.366 372.426 532.504 326.08 461.678 326.08C390.852 326.08 322.994 360.399 269.556 383.279" stroke="#208DFA" stroke-width="5.83361" stroke-linecap="round"/>
<path d="M593.152 398.239C586.366 387.092 532.504 340.746 461.678 340.746C390.852 340.746 322.994 375.066 269.556 397.945" stroke="#208DFA" stroke-width="6.36393" stroke-linecap="round"/>
<path d="M593.152 252.16C586.366 241.014 532.504 194.667 461.678 194.667C390.852 194.667 322.994 228.987 269.556 251.866" stroke="#208DFA" stroke-width="1.06066" stroke-linecap="round"/>
<path d="M302.629 238.336C302.629 238.336 179.39 178.278 108.139 180.038C36.8887 181.798 -16.5492 226.384 -23.335 237.531" stroke="#22E085" stroke-width="1.06066" stroke-linecap="round"/>
<path d="M-23.335 252.198C-16.5492 241.051 36.8887 196.465 108.139 194.705C163.99 193.325 250.934 230.087 285.76 245.761" stroke="#22E085" stroke-width="1.59098" stroke-linecap="round"/>
<path d="M-23.335 266.826C-16.5492 255.679 36.8887 211.093 108.139 209.333C163.99 207.953 251.701 244.936 286.526 260.609" stroke="#22E085" stroke-width="2.12131" stroke-linecap="round"/>
<path d="M-23.335 281.492C-16.5492 270.346 36.8887 225.759 108.139 223.999C163.99 222.62 250.934 259.255 285.76 274.928" stroke="#22E085" stroke-width="2.65164" stroke-linecap="round"/>
<path d="M-23.335 296.159C-16.5492 285.012 36.8887 240.426 108.139 238.666C163.99 237.286 251.701 274.104 286.526 289.778" stroke="#22E085" stroke-width="3.18197" stroke-linecap="round"/>
<path d="M-23.335 310.826C-16.5492 299.679 36.8887 255.093 108.139 253.333C163.99 251.953 252.468 289.484 287.293 305.157" stroke="#22E085" stroke-width="3.7123" stroke-linecap="round"/>
<path d="M-23.335 325.492C-16.5492 314.345 36.8887 269.759 108.139 267.999C163.99 266.619 254.001 304.333 288.827 320.006" stroke="#22E085" stroke-width="4.24262" stroke-linecap="round"/>
<path d="M-23.335 340.159C-16.5492 329.012 36.8887 284.426 108.139 282.666C163.99 281.286 254.001 318.652 288.827 334.325" stroke="#22E085" stroke-width="4.77295" stroke-linecap="round"/>
<path d="M-23.335 354.825C-16.5492 343.679 36.8887 299.092 108.139 297.332C163.99 295.953 254.001 333.501 288.827 349.174" stroke="#22E085" stroke-width="5.30328" stroke-linecap="round"/>
<path d="M-23.335 369.492C-16.5492 358.346 36.8887 313.759 108.139 311.999C163.99 310.619 254.768 348.35 289.594 364.024" stroke="#22E085" stroke-width="5.83361" stroke-linecap="round"/>
<path d="M-23.335 383.572C-16.5492 372.425 36.8887 327.839 108.139 326.079C163.99 324.699 254.768 363.2 289.594 378.873" stroke="#22E085" stroke-width="6.36393" stroke-linecap="round"/>
<path d="M-23.335 398.238C-16.5492 387.092 36.8887 342.505 108.139 340.745C163.99 339.366 257.835 379.109 292.661 394.782" stroke="#22E085" stroke-width="6.89426" stroke-linecap="round"/>
</g>
<defs>
<linearGradient id="paint0_linear" x1="291" y1="0" x2="291" y2="340" gradientUnits="userSpaceOnUse">
<stop stop-color="#1F78FF"/>
<stop offset="0.352381" stop-color="#2082FF"/>
<stop offset="1" stop-color="#21C9DF"/>
</linearGradient>
<clipPath id="clip0">
<path d="M0 20C0 10.5719 0 5.85786 2.92893 2.92893C5.85786 0 10.5719 0 20 0H562C571.428 0 576.142 0 579.071 2.92893C582 5.85786 582 10.5719 582 20V320C582 329.428 582 334.142 579.071 337.071C576.142 340 571.428 340 562 340H20C10.5719 340 5.85786 340 2.92893 337.071C0 334.142 0 329.428 0 320V20Z" fill="white"/>
</clipPath>
</defs>
</svg>
