<svg width="590" height="340" viewBox="0 0 590 340" fill="none" xmlns="http://www.w3.org/2000/svg">
<g clip-path="url(#clip0)">
<rect width="590" height="340" rx="10" fill="#4B3F7C"/>
<circle cx="2.65164" cy="333.93" r="2.65164" fill="#57459E"/>
<circle cx="23.8648" cy="333.93" r="2.65164" fill="#57459E"/>
<circle cx="2.65164" cy="312.717" r="2.65164" fill="#DC296C"/>
<circle cx="23.8648" cy="312.717" r="2.65164" fill="#2093F8"/>
<circle cx="2.65164" cy="291.504" r="2.65164" fill="#DC296C"/>
<circle cx="23.8648" cy="291.504" r="2.65164" fill="#57459E"/>
<circle opacity="0.8" cx="2.65164" cy="270.291" r="2.65164" fill="#2093F8"/>
<circle opacity="0.8" cx="23.8648" cy="270.291" r="2.65164" fill="#57459E"/>
<circle opacity="0.6" cx="2.65164" cy="249.078" r="2.65164" fill="#57459E"/>
<circle opacity="0.6" cx="23.8648" cy="249.078" r="2.65164" fill="#DC296C"/>
<circle opacity="0.4" cx="23.8648" cy="227.865" r="2.65164" fill="#DC296C"/>
<circle cx="45.0779" cy="333.93" r="2.65164" fill="#DC296C"/>
<circle cx="45.0779" cy="312.717" r="2.65164" fill="#57459E"/>
<circle cx="45.0779" cy="291.504" r="2.65164" fill="#57459E"/>
<circle opacity="0.8" cx="45.0779" cy="270.291" r="2.65164" fill="#57459E"/>
<circle opacity="0.6" cx="45.0779" cy="249.078" r="2.65164" fill="#57459E"/>
<circle cx="66.291" cy="333.93" r="2.65164" fill="#2093F8"/>
<circle cx="66.291" cy="312.717" r="2.65164" fill="#57459E"/>
<circle cx="66.291" cy="291.504" r="2.65164" fill="#DC296C"/>
<circle opacity="0.8" cx="66.291" cy="270.291" r="2.65164" fill="#57459E"/>
<circle cx="87.5042" cy="333.93" r="2.65164" fill="#DC296C"/>
<circle cx="87.5042" cy="312.717" r="2.65164" fill="#57459E"/>
<circle cx="87.5042" cy="291.504" r="2.65164" fill="#57459E"/>
<circle opacity="0.8" cx="87.5042" cy="270.291" r="2.65164" fill="#57459E"/>
<circle opacity="0.6" cx="87.5042" cy="249.078" r="2.65164" fill="#2093F8"/>
<circle cx="108.717" cy="333.93" r="2.65164" fill="#57459E"/>
<circle cx="108.717" cy="312.717" r="2.65164" fill="#57459E"/>
<circle cx="108.717" cy="291.504" r="2.65164" fill="#57459E"/>
<circle opacity="0.8" cx="108.717" cy="270.291" r="2.65164" fill="#DC296C"/>
<circle opacity="0.6" cx="108.717" cy="249.078" r="2.65164" fill="#57459E"/>
<circle cx="129.93" cy="333.93" r="2.65164" fill="#2093F8"/>
<circle cx="129.93" cy="312.717" r="2.65164" fill="#2093F8"/>
<circle cx="129.93" cy="291.504" r="2.65164" fill="#2093F8"/>
<circle opacity="0.8" cx="129.93" cy="270.291" r="2.65164" fill="#57459E"/>
<circle opacity="0.6" cx="129.93" cy="249.078" r="2.65164" fill="#DC296C"/>
<circle opacity="0.4" cx="129.93" cy="227.865" r="2.65164" fill="#2093F8"/>
<circle cx="151.143" cy="333.93" r="2.65164" fill="#DC296C"/>
<circle cx="151.143" cy="312.717" r="2.65164" fill="#57459E"/>
<circle cx="151.143" cy="291.504" r="2.65164" fill="#57459E"/>
<circle opacity="0.8" cx="151.143" cy="270.291" r="2.65164" fill="#DC296C"/>
<circle opacity="0.6" cx="151.143" cy="249.078" r="2.65164" fill="#2093F8"/>
<circle opacity="0.4" cx="151.143" cy="227.865" r="2.65164" fill="#DC296C"/>
<circle cx="172.356" cy="333.93" r="2.65164" fill="#2093F8"/>
<circle cx="172.356" cy="312.717" r="2.65164" fill="#57459E"/>
<circle cx="172.356" cy="291.504" r="2.65164" fill="#DC296C"/>
<circle opacity="0.8" cx="172.356" cy="270.291" r="2.65164" fill="#57459E"/>
<circle cx="193.57" cy="333.93" r="2.65164" fill="#57459E"/>
<circle cx="193.57" cy="312.717" r="2.65164" fill="#2093F8"/>
<circle cx="193.57" cy="291.504" r="2.65164" fill="#57459E"/>
<circle opacity="0.8" cx="193.57" cy="270.291" r="2.65164" fill="#DC296C"/>
<circle opacity="0.6" cx="193.57" cy="249.078" r="2.65164" fill="#57459E"/>
<circle opacity="0.4" cx="193.57" cy="227.865" r="2.65164" fill="#DC296C"/>
<circle opacity="0.2" cx="193.57" cy="206.652" r="2.65164" fill="#DC296C"/>
<circle cx="214.783" cy="333.93" r="2.65164" fill="#57459E"/>
<circle cx="214.783" cy="312.717" r="2.65164" fill="#2093F8"/>
<circle cx="214.783" cy="291.504" r="2.65164" fill="#57459E"/>
<circle opacity="0.8" cx="214.783" cy="270.291" r="2.65164" fill="#57459E"/>
<circle opacity="0.6" cx="214.783" cy="249.078" r="2.65164" fill="#57459E"/>
<circle cx="235.996" cy="333.93" r="2.65164" fill="#DC296C"/>
<circle cx="235.996" cy="312.717" r="2.65164" fill="#DC296C"/>
<circle cx="235.996" cy="291.504" r="2.65164" fill="#2093F8"/>
<circle opacity="0.8" cx="235.996" cy="270.291" r="2.65164" fill="#57459E"/>
<circle opacity="0.6" cx="235.996" cy="249.078" r="2.65164" fill="#DC296C"/>
<circle opacity="0.4" cx="235.996" cy="227.865" r="2.65164" fill="#2093F8"/>
<circle cx="257.209" cy="333.93" r="2.65164" fill="#DC296C"/>
<circle cx="257.209" cy="312.717" r="2.65164" fill="#57459E"/>
<circle cx="257.209" cy="291.504" r="2.65164" fill="#57459E"/>
<circle opacity="0.8" cx="257.209" cy="270.291" r="2.65164" fill="#2093F8"/>
<circle opacity="0.6" cx="257.209" cy="249.078" r="2.65164" fill="#2093F8"/>
<circle opacity="0.4" cx="257.209" cy="227.865" r="2.65164" fill="#57459E"/>
<circle opacity="0.2" cx="257.209" cy="206.652" r="2.65164" fill="#57459E"/>
<circle cx="278.422" cy="333.93" r="2.65164" fill="#57459E"/>
<circle cx="278.422" cy="312.717" r="2.65164" fill="#57459E"/>
<circle cx="278.422" cy="291.504" r="2.65164" fill="#57459E"/>
<circle opacity="0.8" cx="278.422" cy="270.291" r="2.65164" fill="#DC296C"/>
<circle opacity="0.6" cx="278.422" cy="249.078" r="2.65164" fill="#2093F8"/>
<circle opacity="0.4" cx="278.422" cy="227.865" r="2.65164" fill="#57459E"/>
<circle opacity="0.2" cx="278.422" cy="206.652" r="2.65164" fill="#DC296C"/>
<circle cx="299.635" cy="333.93" r="2.65164" fill="#2093F8"/>
<circle cx="299.635" cy="312.717" r="2.65164" fill="#57459E"/>
<circle cx="299.635" cy="291.504" r="2.65164" fill="#2093F8"/>
<circle opacity="0.8" cx="299.635" cy="270.291" r="2.65164" fill="#2093F8"/>
<circle opacity="0.6" cx="299.635" cy="249.078" r="2.65164" fill="#DC296C"/>
<circle opacity="0.4" cx="299.635" cy="227.865" r="2.65164" fill="#57459E"/>
<circle cx="320.848" cy="333.93" r="2.65164" fill="#57459E"/>
<circle cx="320.848" cy="312.717" r="2.65164" fill="#DC296C"/>
<circle cx="320.848" cy="291.504" r="2.65164" fill="#DC296C"/>
<circle opacity="0.8" cx="320.848" cy="270.291" r="2.65164" fill="#57459E"/>
<circle cx="342.062" cy="333.93" r="2.65164" fill="#2093F8"/>
<circle cx="342.062" cy="312.717" r="2.65164" fill="#2093F8"/>
<circle cx="342.062" cy="291.504" r="2.65164" fill="#57459E"/>
<circle opacity="0.8" cx="342.062" cy="270.291" r="2.65164" fill="#57459E"/>
<circle opacity="0.6" cx="342.062" cy="249.078" r="2.65164" fill="#2093F8"/>
<circle opacity="0.4" cx="342.062" cy="227.865" r="2.65164" fill="#DC296C"/>
<circle opacity="0.2" cx="342.062" cy="206.652" r="2.65164" fill="#2093F8"/>
<circle cx="363.275" cy="333.93" r="2.65164" fill="#2093F8"/>
<circle cx="363.275" cy="312.717" r="2.65164" fill="#2093F8"/>
<circle cx="363.275" cy="291.504" r="2.65164" fill="#DC296C"/>
<circle opacity="0.8" cx="363.275" cy="270.291" r="2.65164" fill="#2093F8"/>
<circle opacity="0.6" cx="363.275" cy="249.078" r="2.65164" fill="#DC296C"/>
<circle cx="384.652" cy="333.93" r="2.65164" fill="#57459E"/>
<circle cx="405.865" cy="333.93" r="2.65164" fill="#57459E"/>
<circle cx="384.652" cy="312.717" r="2.65164" fill="#DC296C"/>
<circle cx="405.865" cy="312.717" r="2.65164" fill="#2093F8"/>
<circle cx="384.652" cy="291.504" r="2.65164" fill="#DC296C"/>
<circle cx="405.865" cy="291.504" r="2.65164" fill="#57459E"/>
<circle opacity="0.8" cx="384.652" cy="270.291" r="2.65164" fill="#2093F8"/>
<circle opacity="0.8" cx="405.865" cy="270.291" r="2.65164" fill="#57459E"/>
<circle opacity="0.6" cx="384.652" cy="249.078" r="2.65164" fill="#57459E"/>
<circle opacity="0.6" cx="405.865" cy="249.078" r="2.65164" fill="#DC296C"/>
<circle opacity="0.4" cx="405.865" cy="227.865" r="2.65164" fill="#DC296C"/>
<circle cx="427.078" cy="333.93" r="2.65164" fill="#DC296C"/>
<circle cx="427.078" cy="312.717" r="2.65164" fill="#57459E"/>
<circle cx="427.078" cy="291.504" r="2.65164" fill="#57459E"/>
<circle opacity="0.8" cx="427.078" cy="270.291" r="2.65164" fill="#57459E"/>
<circle opacity="0.6" cx="427.078" cy="249.078" r="2.65164" fill="#57459E"/>
<circle cx="448.291" cy="333.93" r="2.65164" fill="#2093F8"/>
<circle cx="448.291" cy="312.717" r="2.65164" fill="#57459E"/>
<circle cx="448.291" cy="291.504" r="2.65164" fill="#DC296C"/>
<circle opacity="0.8" cx="448.291" cy="270.291" r="2.65164" fill="#57459E"/>
<circle cx="469.504" cy="333.93" r="2.65164" fill="#DC296C"/>
<circle cx="469.504" cy="312.717" r="2.65164" fill="#57459E"/>
<circle cx="469.504" cy="291.504" r="2.65164" fill="#57459E"/>
<circle opacity="0.8" cx="469.504" cy="270.291" r="2.65164" fill="#57459E"/>
<circle opacity="0.6" cx="469.504" cy="249.078" r="2.65164" fill="#2093F8"/>
<circle cx="490.717" cy="333.93" r="2.65164" fill="#57459E"/>
<circle cx="490.717" cy="312.717" r="2.65164" fill="#57459E"/>
<circle cx="490.717" cy="291.504" r="2.65164" fill="#57459E"/>
<circle opacity="0.8" cx="490.717" cy="270.291" r="2.65164" fill="#DC296C"/>
<circle opacity="0.6" cx="490.717" cy="249.078" r="2.65164" fill="#57459E"/>
<circle cx="511.93" cy="333.93" r="2.65164" fill="#2093F8"/>
<circle cx="511.93" cy="312.717" r="2.65164" fill="#2093F8"/>
<circle cx="511.93" cy="291.504" r="2.65164" fill="#2093F8"/>
<circle opacity="0.8" cx="511.93" cy="270.291" r="2.65164" fill="#57459E"/>
<circle opacity="0.6" cx="511.93" cy="249.078" r="2.65164" fill="#DC296C"/>
<circle opacity="0.4" cx="511.93" cy="227.865" r="2.65164" fill="#2093F8"/>
<circle cx="533.143" cy="333.93" r="2.65164" fill="#DC296C"/>
<circle cx="533.143" cy="312.717" r="2.65164" fill="#57459E"/>
<circle cx="533.143" cy="291.504" r="2.65164" fill="#57459E"/>
<circle opacity="0.8" cx="533.143" cy="270.291" r="2.65164" fill="#DC296C"/>
<circle opacity="0.6" cx="533.143" cy="249.078" r="2.65164" fill="#2093F8"/>
<circle opacity="0.4" cx="533.143" cy="227.865" r="2.65164" fill="#DC296C"/>
<circle cx="554.356" cy="333.93" r="2.65164" fill="#2093F8"/>
<circle cx="554.356" cy="312.717" r="2.65164" fill="#57459E"/>
<circle cx="554.356" cy="291.504" r="2.65164" fill="#DC296C"/>
<circle opacity="0.8" cx="554.356" cy="270.291" r="2.65164" fill="#57459E"/>
<circle cx="575.57" cy="333.93" r="2.65164" fill="#57459E"/>
<circle cx="575.57" cy="312.717" r="2.65164" fill="#2093F8"/>
<circle cx="575.57" cy="291.504" r="2.65164" fill="#57459E"/>
<circle opacity="0.8" cx="575.57" cy="270.291" r="2.65164" fill="#DC296C"/>
<circle opacity="0.6" cx="575.57" cy="249.078" r="2.65164" fill="#57459E"/>
<circle opacity="0.4" cx="575.57" cy="227.865" r="2.65164" fill="#DC296C"/>
<circle opacity="0.2" cx="575.57" cy="206.652" r="2.65164" fill="#DC296C"/>
</g>
<defs>
<clipPath id="clip0">
<rect width="590" height="340" rx="10" fill="white"/>
</clipPath>
</defs>
</svg>
