<svg width="583" height="341" viewBox="0 0 583 341" fill="none" xmlns="http://www.w3.org/2000/svg">
<g clip-path="url(#clip0)">
<rect width="583" height="341" rx="10" fill="url(#paint0_linear)"/>
<g clip-path="url(#clip1)">
<path fill-rule="evenodd" clip-rule="evenodd" d="M528.433 377.353C528.433 359.462 535.06 347.837 558.031 325.911C573.345 311.293 581.738 296.957 583.211 282.902C585.563 296.878 594.398 311.355 609.716 326.332C632.692 348.798 637.988 359.462 637.988 377.353C637.988 395.243 632.692 405.907 609.716 428.373C594.398 443.35 585.563 457.827 583.211 471.803C581.738 457.748 573.345 443.412 558.031 428.794C535.06 406.868 528.433 395.243 528.433 377.353ZM555.99 377.353C555.99 386.452 559.279 392.364 570.682 403.516C578.283 410.951 582.449 418.242 583.18 425.391C584.348 418.282 588.733 410.919 596.337 403.302C607.741 391.876 610.37 386.452 610.37 377.353L555.99 377.353ZM555.99 377.353L610.37 377.353C610.37 368.253 607.741 362.829 596.337 351.403C588.733 343.786 584.348 336.423 583.18 329.314C582.449 336.463 578.283 343.754 570.682 351.189C559.279 362.341 555.99 368.253 555.99 377.353Z" fill="#5E74DE"/>
<path fill-rule="evenodd" clip-rule="evenodd" d="M528.433 188.451C528.433 170.56 535.059 158.935 558.03 137.009C573.345 122.391 581.738 108.055 583.21 93.9999C585.563 107.976 594.398 122.453 609.716 137.43C632.692 159.896 637.988 170.56 637.988 188.451C637.988 206.341 632.692 217.005 609.716 239.471C594.398 254.448 585.563 268.925 583.21 282.902C581.738 268.846 573.345 254.51 558.03 239.893C535.059 217.967 528.433 206.342 528.433 188.451ZM555.99 188.451C555.99 197.55 559.279 203.463 570.681 214.614C578.283 222.049 582.449 229.341 583.18 236.489C584.348 229.381 588.733 222.018 596.336 214.4C607.741 202.974 610.37 197.55 610.37 188.451L555.99 188.451ZM555.99 188.451L610.37 188.451C610.37 179.351 607.741 173.928 596.336 162.501C588.733 154.884 584.348 147.521 583.18 140.412C582.449 147.561 578.283 154.853 570.681 162.287C559.279 173.439 555.99 179.351 555.99 188.451Z" fill="#5E74DE"/>
<path fill-rule="evenodd" clip-rule="evenodd" d="M346.672 377.353C346.672 359.462 353.298 347.837 376.27 325.911C391.584 311.293 399.977 296.957 401.449 282.902C403.802 296.878 412.637 311.355 427.955 326.332C450.931 348.798 456.227 359.462 456.227 377.352C456.227 395.243 450.931 405.907 427.955 428.373C412.637 443.35 403.802 457.827 401.449 471.803C399.977 457.748 391.584 443.412 376.27 428.794C353.298 406.868 346.672 395.243 346.672 377.353ZM374.229 377.352C374.229 386.452 377.518 392.364 388.92 403.516C396.522 410.951 400.688 418.242 401.419 425.391C402.587 418.282 406.972 410.919 414.575 403.302C425.98 391.876 428.609 386.452 428.609 377.352L374.229 377.352ZM374.229 377.352L428.609 377.352C428.609 368.253 425.98 362.829 414.575 351.403C406.972 343.786 402.587 336.423 401.419 329.314C400.688 336.463 396.522 343.754 388.92 351.189C377.518 362.341 374.229 368.253 374.229 377.352Z" fill="#5E74DE"/>
<path fill-rule="evenodd" clip-rule="evenodd" d="M255.025 287.349C255.025 269.458 261.651 257.833 284.622 235.907C299.936 221.29 308.33 206.953 309.802 192.898C312.155 206.875 320.99 221.351 336.307 236.329C359.284 258.794 364.58 269.458 364.58 287.349C364.58 305.24 359.284 315.903 336.307 338.369C320.99 353.347 312.155 367.823 309.802 381.8C308.33 367.745 299.936 353.408 284.622 338.791C261.651 316.865 255.025 305.24 255.025 287.349ZM282.582 287.349C282.582 296.448 285.871 302.361 297.273 313.513C304.875 320.947 309.041 328.239 309.772 335.387C310.94 328.279 315.325 320.916 322.928 313.298C334.333 301.872 336.962 296.448 336.962 287.349L282.582 287.349ZM282.582 287.349L336.962 287.349C336.962 278.25 334.333 272.826 322.928 261.4C315.325 253.782 310.94 246.419 309.772 239.311C309.041 246.459 304.875 253.751 297.273 261.185C285.871 272.337 282.582 278.25 282.582 287.349Z" fill="#5E74DE"/>
<path fill-rule="evenodd" clip-rule="evenodd" d="M437.967 285.387C437.967 267.496 444.594 255.871 467.565 233.945C482.879 219.328 491.272 204.992 492.745 190.936C495.097 204.913 503.933 219.39 519.25 234.367C542.226 256.833 547.522 267.497 547.522 285.387C547.522 303.278 542.226 313.942 519.25 336.408C503.933 351.385 495.098 365.862 492.745 379.838C491.272 365.783 482.879 351.447 467.565 336.829C444.594 314.903 437.967 303.278 437.967 285.387ZM465.524 285.387C465.524 294.487 468.814 300.399 480.216 311.551C487.817 318.985 491.983 326.277 492.714 333.426C493.882 326.317 498.268 318.954 505.871 311.337C517.275 299.91 519.904 294.487 519.904 285.387L465.524 285.387ZM465.524 285.387L519.904 285.387C519.904 276.288 517.275 270.864 505.871 259.438C498.268 251.82 493.882 244.457 492.714 237.349C491.983 244.497 487.817 251.789 480.216 259.224C468.814 270.375 465.524 276.288 465.524 285.387Z" fill="#5E74DE"/>
</g>
</g>
<defs>
<linearGradient id="paint0_linear" x1="291.5" y1="0" x2="291.5" y2="341" gradientUnits="userSpaceOnUse">
<stop stop-color="#5431E2"/>
<stop offset="1" stop-color="#1549FF"/>
</linearGradient>
<clipPath id="clip0">
<rect width="583" height="341" rx="10" fill="white"/>
</clipPath>
<clipPath id="clip1">
<rect width="410" height="430" fill="white" transform="matrix(1 -8.74228e-08 -8.74228e-08 -1 184 524)"/>
</clipPath>
</defs>
</svg>
