<svg width="26" height="17" viewBox="0 0 26 17" fill="none" xmlns="http://www.w3.org/2000/svg">
<path d="M12.9977 1.31396C8.41312 1.31396 4.25559 3.82565 1.18775 7.9053C0.937416 8.23954 0.937416 8.70649 1.18775 9.04072C4.25559 13.1253 8.41312 15.637 12.9977 15.637C17.5823 15.637 21.7398 13.1253 24.8076 9.04564C25.058 8.7114 25.058 8.24445 24.8076 7.91022C21.7398 3.82565 17.5823 1.31396 12.9977 1.31396Z" stroke="#494A50"/>
<path d="M13.1744 11.1886C11.5349 11.2918 10.1802 9.94012 10.2881 8.29843C10.3716 6.94183 11.4711 5.84573 12.8259 5.75725C14.4653 5.65403 15.8201 7.00573 15.7121 8.64742C15.6237 10.0089 14.5242 11.105 13.1744 11.1886Z" stroke="#494A50"/>
</svg>
