<svg width="17" height="17" viewBox="0 0 17 17" fill="none" xmlns="http://www.w3.org/2000/svg">
<path d="M3.2759 16.735C3.43375 16.8491 3.61871 16.9072 3.80496 16.9072C3.96579 16.9072 4.1252 16.8639 4.26826 16.7789L8.49995 14.2487L12.7316 16.7775C13.0405 16.9631 13.4315 16.9468 13.7248 16.7343C14.0187 16.5219 14.1562 16.1556 14.076 15.8014L12.9824 10.9839L16.6913 7.73188C16.964 7.49388 17.0675 7.11631 16.9556 6.77208C16.8436 6.42785 16.5391 6.18336 16.1777 6.1508L11.2711 5.70527L9.33083 1.16398C9.18777 0.831159 8.86195 0.615723 8.49995 0.615723C8.13795 0.615723 7.81214 0.831159 7.66907 1.16476L5.72885 5.70527L0.821402 6.1508C0.460828 6.18413 0.156285 6.42785 0.0443515 6.77208C-0.0675823 7.11696 0.0365692 7.49388 0.309205 7.73188L4.01819 10.9846L2.92454 15.8021C2.84451 16.1556 2.98187 16.5219 3.2759 16.735Z" fill="#494A50"/>
</svg>
