<svg width="193" height="176" viewBox="0 0 193 176" fill="none" xmlns="http://www.w3.org/2000/svg">
<path fill-rule="evenodd" clip-rule="evenodd" d="M121.344 135.367C122.576 133.907 123.192 131.862 123.192 129.233V118.849H106.824V129.233C106.824 131.862 107.49 133.907 108.823 135.367C110.155 136.826 112.267 137.555 115.159 137.555C118.05 137.555 120.112 136.826 121.344 135.367ZM101.317 144.161C98.6018 140.932 97.2443 136.323 97.2443 130.331V118.849H60.3999V107.4H132.847V131.079C132.847 136.538 131.414 140.89 128.548 144.135C125.681 147.381 121.243 149.003 115.234 149.003C108.672 149.003 104.033 147.388 101.317 144.161Z" fill="#4780D8"/>
<mask id="mask0_347_262" style="mask-type:alpha" maskUnits="userSpaceOnUse" x="0" y="0" width="193" height="176">
<path fill-rule="evenodd" clip-rule="evenodd" d="M0.399902 175.163H192.595V0H0.399902V175.163Z" fill="white"/>
</mask>
<g mask="url(#mask0_347_262)">
<path fill-rule="evenodd" clip-rule="evenodd" d="M53.8758 26.2612H174.594V17.595H53.8758V26.2612ZM18.137 157.567H174.594V43.8563H18.137V157.567ZM22.4958 17.3889C24.9175 17.3889 26.8808 19.3364 26.8808 21.7388C26.8808 24.1412 24.9175 26.0887 22.4958 26.0887C20.074 26.0887 18.1107 24.1412 18.1107 21.7388C18.1107 19.3364 20.074 17.3889 22.4958 17.3889ZM40.4976 17.3889C42.9193 17.3889 44.8826 19.3364 44.8826 21.7388C44.8826 24.1412 42.9193 26.0887 40.4976 26.0887C38.0758 26.0887 36.1125 24.1412 36.1125 21.7388C36.1125 19.3364 38.0758 17.3889 40.4976 17.3889ZM9.33779 0C4.43098 0 0.399902 3.81497 0.399902 8.68407V166.431C0.399902 171.298 4.43098 175.163 9.33779 175.163H183.6C188.51 175.163 192.595 171.298 192.595 166.431V8.68407C192.595 3.81497 188.51 0 183.6 0H9.33779Z" fill="#4780D8"/>
<path fill-rule="evenodd" clip-rule="evenodd" d="M75.5338 83.7478L64.5135 72.8118L75.5317 61.8805L68.1824 54.5996L57.1635 65.5295L46.1461 54.5996L38.7998 61.8805L49.8195 72.8168L38.7998 83.7478L46.1461 91.0347L57.1635 80.1043L68.1864 91.0347L75.5338 83.7478Z" fill="#4780D8"/>
<path fill-rule="evenodd" clip-rule="evenodd" d="M154.734 83.7478L143.714 72.8118L154.732 61.8805L147.383 54.5996L136.364 65.5295L125.346 54.5996L118 61.8805L129.02 72.8168L118 83.7478L125.346 91.0347L136.364 80.1043L147.387 91.0347L154.734 83.7478Z" fill="#4780D8"/>
</g>
</svg>
