<svg width="152" height="179" viewBox="0 0 152 179" fill="none" xmlns="http://www.w3.org/2000/svg">
<path fill-rule="evenodd" clip-rule="evenodd" d="M111.482 82.2864C103.088 82.2864 96.2774 75.4938 96.2774 67.0994C96.2774 58.7148 103.088 51.912 111.482 51.912C119.876 51.912 126.686 58.7148 126.686 67.0994C126.686 75.4938 119.876 82.2864 111.482 82.2864ZM25.3237 67.0994C25.3237 58.7148 32.1342 51.912 40.528 51.912C48.9223 51.912 55.7323 58.7148 55.7323 67.0994C55.7323 75.4938 48.9223 82.2864 40.528 82.2864C32.1342 82.2864 25.3237 75.4938 25.3237 67.0994ZM76 0C-0.0219803 0 7.34141e-09 70.8734 7.34141e-09 70.8734V179L19.0139 153.715L37.9949 179L56.978 153.715L75.9622 179L94.9467 153.715L113.932 179L132.931 153.715L152 179V70.8734C152 70.8734 152.022 0 76 0Z" fill="#4780D8"/>
</svg>
