<svg width="154" height="213" viewBox="0 0 154 213" fill="none" xmlns="http://www.w3.org/2000/svg">
<mask id="mask0_347_219" style="mask-type:alpha" maskUnits="userSpaceOnUse" x="0" y="0" width="154" height="213">
<path fill-rule="evenodd" clip-rule="evenodd" d="M153.359 212.726V0.0595703H0.400024L0.400024 212.726H153.359Z" fill="white"/>
</mask>
<g mask="url(#mask0_347_219)">
<path fill-rule="evenodd" clip-rule="evenodd" d="M110.414 67.5519C100.274 62.5969 88.9275 59.7274 76.8758 59.7274C64.8338 59.7274 53.482 62.5969 43.3477 67.5519V61.4777C43.4019 43.7972 58.3865 29.4448 76.8758 29.4448C95.3699 29.4448 110.359 43.7972 110.414 61.4777V67.5519ZM76.8758 171.963C57.1542 171.963 41.1641 155.969 41.1641 136.237C41.1641 116.501 57.1542 100.512 76.8758 100.512C96.6071 100.512 112.597 116.501 112.597 136.237C112.597 155.969 96.6071 171.963 76.8758 171.963ZM138.288 90.7643V58.9582H138.165C136.819 26.1957 109.94 0.0595703 76.8758 0.0595703C43.4413 0.0595703 16.2965 26.812 15.5374 60.0922H15.4684V90.7643C6.0439 103.495 0.400024 119.173 0.400024 136.237C0.400024 178.486 34.6379 212.728 76.8758 212.728C119.119 212.728 153.361 178.486 153.361 136.237C153.361 119.173 147.713 103.495 138.288 90.7643Z" fill="#4780D8"/>
</g>
<path fill-rule="evenodd" clip-rule="evenodd" d="M77.0247 118.8C68.1768 118.8 61 125.983 61 134.833C61 143.693 68.1768 150.867 77.0247 150.867C85.8774 150.867 93.0542 143.693 93.0542 134.833C93.0542 125.983 85.8774 118.8 77.0247 118.8Z" fill="#4780D8"/>
</svg>
