<svg width="20" height="18" viewBox="0 0 20 18" fill="none" xmlns="http://www.w3.org/2000/svg">
<path fill-rule="evenodd" clip-rule="evenodd" d="M17.3085 9.01969C17.056 9.01969 16.8484 9.22436 16.8484 9.47684V16.484C16.8484 16.7357 16.6448 16.9401 16.3931 16.9411L12.3872 16.9575C12.1345 16.9585 11.929 16.7544 11.9282 16.5018L11.9127 11.7541C11.9119 11.5024 11.7077 11.2987 11.456 11.2984L8.26836 11.2951C8.01493 11.2948 7.80966 11.5008 7.81074 11.7542L7.83118 16.5211C7.83226 16.7735 7.62851 16.979 7.37606 16.9802L3.06992 16.9992C2.81679 17.0003 2.61095 16.7955 2.61076 16.5424L2.60551 9.62821C2.60532 9.37587 2.4007 9.17142 2.14837 9.17142H2.0402C1.62348 9.17142 1.42406 8.65944 1.73099 8.37757L9.56606 1.18216C9.74289 1.01977 10.0152 1.02183 10.1895 1.18688L17.6303 8.23057C17.9304 8.51472 17.7218 9.01969 17.3085 9.01969V9.01969Z" stroke="#C2C6D0" stroke-width="1.25714"/>
</svg>
