<svg width="118" height="85" viewBox="0 0 118 85" fill="none" xmlns="http://www.w3.org/2000/svg">
<path d="M1.51935 52.0783H8.29393C9.10043 52.0783 9.82627 52.2194 10.4715 52.5017C11.1301 52.784 11.6879 53.1671 12.145 53.651C12.6154 54.1214 12.9716 54.6793 13.2136 55.3245C13.469 55.9562 13.5966 56.6283 13.5966 57.3407C13.5966 58.0531 13.469 58.7252 13.2136 59.3569C12.9716 59.9887 12.6154 60.5465 12.145 61.0304C11.6879 61.5009 11.1301 61.8773 10.4715 62.1595C9.82627 62.4418 9.10043 62.5829 8.29393 62.5829H5.71314V66.192H1.51935V52.0783ZM7.44711 59.3368C8.01165 59.3368 8.46195 59.1419 8.79799 58.7521C9.14747 58.3623 9.32221 57.8918 9.32221 57.3407C9.32221 56.7896 9.15419 56.3191 8.81815 55.9293C8.48211 55.5395 8.03182 55.3446 7.46727 55.3446H5.71314V59.3368H7.44711ZM15.0857 52.0783H21.8603C22.6668 52.0783 23.3926 52.2194 24.0378 52.5017C24.6964 52.784 25.2543 53.1671 25.7113 53.651C26.1817 54.1214 26.5379 54.6793 26.7799 55.3245C27.0353 55.9562 27.163 56.6283 27.163 57.3407C27.163 58.3085 26.9345 59.1957 26.4775 60.0021C26.0204 60.8086 25.3887 61.4404 24.5822 61.8974L27.4049 66.192H22.4651L20.0658 62.5829H19.2795V66.192H15.0857V52.0783ZM21.0134 59.3368C21.578 59.3368 22.0283 59.1419 22.3643 58.7521C22.7138 58.3623 22.8885 57.8918 22.8885 57.3407C22.8885 56.7896 22.7205 56.3191 22.3845 55.9293C22.0484 55.5395 21.5981 55.3446 21.0336 55.3446H19.2795V59.3368H21.0134ZM33.3577 55.2237V57.6835H38.2572V60.6877H33.3577V63.0467H38.2572V66.192H29.1639V52.0783H38.2572V55.2237H33.3577ZM40.5841 52.0783H47.3586C48.1651 52.0783 48.891 52.2194 49.5362 52.5017C50.1948 52.784 50.7527 53.1671 51.2097 53.651C51.6801 54.1214 52.0363 54.6793 52.2783 55.3245C52.5337 55.9562 52.6614 56.6283 52.6614 57.3407C52.6614 58.0531 52.5337 58.7252 52.2783 59.3569C52.0363 59.9887 51.6801 60.5465 51.2097 61.0304C50.7527 61.5009 50.1948 61.8773 49.5362 62.1595C48.891 62.4418 48.1651 62.5829 47.3586 62.5829H44.7779V66.192H40.5841V52.0783ZM46.5118 59.3368C47.0764 59.3368 47.5267 59.1419 47.8627 58.7521C48.2122 58.3623 48.3869 57.8918 48.3869 57.3407C48.3869 56.7896 48.2189 56.3191 47.8829 55.9293C47.5468 55.5395 47.0965 55.3446 46.532 55.3446H44.7779V59.3368H46.5118ZM62.9009 60.0021H56.3279V66.192H54.4932V52.0783H56.3279V58.3488H62.9009V52.0783H64.7357V66.192H62.9009V60.0021ZM74.4149 66.5146C73.2858 66.5146 72.271 66.313 71.3704 65.9097C70.4698 65.4931 69.7036 64.9419 69.0719 64.2564C68.4536 63.5709 67.9764 62.7846 67.6403 61.8974C67.3043 61.0103 67.1363 60.0895 67.1363 59.1352C67.1363 58.1808 67.3043 57.2601 67.6403 56.3729C67.9764 55.4858 68.4536 54.6994 69.0719 54.0139C69.7036 53.3284 70.4698 52.784 71.3704 52.3807C72.271 51.9641 73.2858 51.7557 74.4149 51.7557C75.544 51.7557 76.5589 51.9641 77.4594 52.3807C78.36 52.784 79.1195 53.3284 79.7378 54.0139C80.3696 54.6994 80.8535 55.4858 81.1895 56.3729C81.5255 57.2601 81.6936 58.1808 81.6936 59.1352C81.6936 60.0895 81.5255 61.0103 81.1895 61.8974C80.8535 62.7846 80.3696 63.5709 79.7378 64.2564C79.1195 64.9419 78.36 65.4931 77.4594 65.9097C76.5589 66.313 75.544 66.5146 74.4149 66.5146ZM74.4149 64.8613C75.2349 64.8613 75.9741 64.7 76.6328 64.3774C77.3049 64.0548 77.8694 63.6314 78.3264 63.1072C78.7834 62.5695 79.1329 61.9579 79.3749 61.2724C79.6303 60.5869 79.758 59.8745 79.758 59.1352C79.758 58.3959 79.6303 57.6835 79.3749 56.9979C79.1329 56.299 78.7834 55.6874 78.3264 55.1632C77.8694 54.6255 77.3049 54.2021 76.6328 53.8929C75.9741 53.5703 75.2349 53.409 74.4149 53.409C73.5815 53.409 72.8355 53.5703 72.1769 53.8929C71.5182 54.2021 70.9537 54.6255 70.4832 55.1632C70.0262 55.6874 69.67 56.299 69.4146 56.9979C69.1727 57.6835 69.0517 58.3959 69.0517 59.1352C69.0517 59.8745 69.1727 60.5869 69.4146 61.2724C69.67 61.9579 70.0262 62.5695 70.4832 63.1072C70.9537 63.6314 71.5182 64.0548 72.1769 64.3774C72.8355 64.7 73.5815 64.8613 74.4149 64.8613ZM83.9262 52.0783H85.761V61.6151C85.761 62.0587 85.8349 62.4754 85.9828 62.8652C86.1307 63.255 86.3323 63.5978 86.5877 63.8935C86.8565 64.1892 87.1791 64.4244 87.5555 64.5992C87.9318 64.7739 88.3485 64.8613 88.8055 64.8613C89.276 64.8613 89.6994 64.7739 90.0758 64.5992C90.4656 64.4244 90.7949 64.1892 91.0637 63.8935C91.3326 63.5978 91.5409 63.255 91.6888 62.8652C91.8366 62.4754 91.9106 62.0587 91.9106 61.6151V52.0783H93.7453V61.6151C93.7453 62.2872 93.6311 62.919 93.4026 63.5104C93.1741 64.1018 92.8447 64.6193 92.4146 65.0629C91.9845 65.5065 91.4603 65.8627 90.8419 66.1315C90.2371 66.3869 89.5583 66.5146 88.8055 66.5146C88.0662 66.5146 87.3942 66.3869 86.7893 66.1315C86.1979 65.8627 85.6871 65.5065 85.2569 65.0629C84.8403 64.6193 84.5109 64.1018 84.269 63.5104C84.0405 62.919 83.9262 62.2872 83.9262 61.6151V52.0783ZM97.9171 61.6958C97.9171 62.6636 98.2061 63.4365 98.7841 64.0145C99.3621 64.579 100.135 64.8613 101.103 64.8613C101.923 64.8613 102.595 64.6462 103.119 64.2161C103.643 63.786 103.905 63.2013 103.905 62.462C103.905 62.0318 103.825 61.6756 103.663 61.3934C103.502 61.1111 103.287 60.8759 103.018 60.6877C102.763 60.486 102.474 60.3315 102.151 60.2239C101.842 60.103 101.533 59.9954 101.224 59.9013C100.592 59.6997 99.9938 59.4914 99.4293 59.2763C98.8647 59.0612 98.3674 58.7991 97.9372 58.49C97.5206 58.1674 97.1912 57.7708 96.9493 57.3004C96.7073 56.8299 96.5864 56.2385 96.5864 55.5261C96.5864 54.9615 96.6939 54.4508 96.909 53.9937C97.1375 53.5367 97.4466 53.1402 97.8364 52.8042C98.2262 52.4681 98.69 52.2127 99.2276 52.038C99.7653 51.8498 100.35 51.7557 100.982 51.7557C101.627 51.7557 102.218 51.8632 102.756 52.0783C103.294 52.2799 103.757 52.5689 104.147 52.9453C104.537 53.3217 104.846 53.7787 105.075 54.3163C105.303 54.8406 105.418 55.4253 105.418 56.0705H103.583C103.569 55.264 103.334 54.6188 102.877 54.1349C102.433 53.651 101.815 53.409 101.022 53.409C100.242 53.409 99.6107 53.5972 99.1268 53.9736C98.6564 54.3499 98.4211 54.8674 98.4211 55.5261C98.4211 55.9159 98.4951 56.2452 98.6429 56.514C98.7908 56.7694 98.9857 56.9912 99.2276 57.1794C99.4696 57.3541 99.7451 57.5087 100.054 57.6431C100.377 57.7641 100.706 57.8716 101.042 57.9657C101.58 58.1405 102.124 58.3354 102.675 58.5505C103.24 58.7655 103.751 59.0343 104.208 59.3569C104.665 59.6795 105.034 60.0761 105.317 60.5465C105.599 61.0035 105.74 61.5748 105.74 62.2603C105.74 62.9459 105.612 63.5575 105.357 64.0951C105.115 64.6193 104.779 65.0629 104.349 65.4258C103.919 65.7888 103.415 66.0576 102.837 66.2323C102.259 66.4205 101.634 66.5146 100.962 66.5146C100.276 66.5146 99.6376 66.4071 99.0462 66.192C98.4547 65.9635 97.9372 65.6476 97.4937 65.2444C97.0635 64.8277 96.7208 64.3236 96.4654 63.7322C96.21 63.1273 96.0823 62.4485 96.0823 61.6958H97.9171ZM110.101 53.7316V58.3488H116.19V60.0021H110.101V64.5387H116.19V66.192H108.266V52.0783H116.19V53.7316H110.101Z" fill="#494A50"/>
<path d="M36.4006 0.0122877C30.6694 -0.190421 25.0586 2.12542 21.0041 6.17981L13.2988 13.8852C11.2188 15.9652 9.598 18.5294 8.61154 21.3006C7.62509 24.0719 7.26113 27.0834 7.55902 30.0099L7.65165 30.9199L23.4612 19.1621L38.5592 0.0122877H36.4006Z" fill="#F7B631"/>
<path d="M38.5599 0.012207L7.65234 30.9198L8.5624 31.0124C9.2256 31.0799 9.89268 31.1134 10.5609 31.1134C12.841 31.1134 15.1285 30.7228 17.2717 29.9599C20.0429 28.9734 22.6071 27.3526 24.6871 25.2726L32.3925 17.5673C36.4469 13.5128 38.7626 7.90106 38.56 2.17084V0.012207H38.5599Z" fill="#F89258"/>
<path d="M16.3145 21.2549C16.0167 18.3285 16.3806 15.3169 17.3671 12.5457C18.0993 10.4884 19.0996 8.5046 20.4169 6.7677L16.1047 11.0799C14.7873 12.8168 13.7872 14.8007 13.0549 16.8578C12.0684 19.6291 11.7045 22.6407 12.0024 25.5671L12.095 26.4772L15.5494 24.6157L16.4072 22.165L16.3145 21.2549Z" fill="#FFD782"/>
<path d="M19.3159 22.3583C18.6478 22.3583 17.9806 22.3248 17.3174 22.2573L16.4074 22.1647L12.0952 26.4768L13.0053 26.5695C13.6685 26.637 14.3356 26.6705 15.0038 26.6705C17.2839 26.6705 19.5713 26.2799 21.7145 25.5169C24.1909 24.6355 26.4579 23.1596 28.4893 21.4703L32.3924 17.5672C32.4013 17.5583 32.4099 17.5491 32.4187 17.5402C30.5417 19.1295 28.3217 20.3878 26.0267 21.2047C23.8835 21.9676 21.5961 22.3583 19.3159 22.3583Z" fill="#D56F35"/>
<path d="M27.2 9.7793L4.05571 32.9236L1.05713 37.5151L13.5209 26.1566L27.9965 10.5758L27.2 9.7793Z" fill="#ECF3FB"/>
<path d="M1.05469 37.5125L27.99 10.5771L28.7864 11.3735L1.85104 38.3088L1.05469 37.5125Z" fill="#E0E6F5"/>
</svg>
