<svg width="53" height="54" viewBox="0 0 53 54" fill="none" xmlns="http://www.w3.org/2000/svg">
<path d="M49.6518 0.0172608C41.6011 -0.267488 33.7195 2.98563 28.0241 8.68092L17.2003 19.5048C14.2785 22.4266 12.0016 26.0286 10.6159 29.9214C9.23025 33.8143 8.71898 38.0447 9.13743 42.1555L9.26756 43.4339L31.4757 26.9174L52.6841 0.0172608H49.6518Z" fill="#F7B631"/>
<path d="M52.6846 0.0175781L9.26801 43.4341L10.5464 43.5643C11.478 43.6591 12.4151 43.7062 13.3537 43.7062C16.5567 43.7062 19.7699 43.1575 22.7805 42.0857C26.6733 40.7001 30.2753 38.4232 33.1971 35.5014L44.021 24.6776C49.7164 18.9822 52.9693 11.0992 52.6847 3.04985V0.0175781H52.6846Z" fill="#F89258"/>
<path d="M21.4361 29.8574C21.0177 25.7465 21.5289 21.5161 22.9146 17.6233C23.9432 14.7334 25.3483 11.9467 27.1988 9.50684L21.1413 15.5643C19.2908 18.0042 17.8858 20.7909 16.8572 23.6807C15.4715 27.5735 14.9603 31.8039 15.3787 35.9148L15.5088 37.1932L20.3613 34.5783L21.5662 31.1358L21.4361 29.8574Z" fill="#FFD782"/>
<path d="M25.6519 31.4078C24.7134 31.4078 23.7762 31.3607 22.8446 31.2659L21.5662 31.1358L15.5088 37.1932L16.7872 37.3233C17.7188 37.4181 18.6558 37.4652 19.5945 37.4652C22.7975 37.4652 26.0106 36.9165 29.0213 35.8448C32.4998 34.6066 35.6843 32.5334 38.5379 30.1605L44.0208 24.6776C44.0333 24.6651 44.0453 24.6522 44.0577 24.6396C41.421 26.8722 38.3025 28.6398 35.0787 29.7873C32.068 30.859 28.8549 31.4078 25.6519 31.4078Z" fill="#D56F35"/>
<path d="M36.7281 13.7373L4.2167 46.2487L0.0045166 52.6985L17.5126 36.7429L37.8469 14.8561L36.7281 13.7373Z" fill="#ECF3FB"/>
<path d="M6.10352e-05 52.6943L37.8367 14.8577L38.9554 15.9763L1.11871 53.813L6.10352e-05 52.6943Z" fill="#E0E6F5"/>
</svg>
