<svg width="161" height="49" viewBox="0 0 161 49" fill="none" xmlns="http://www.w3.org/2000/svg">
<path d="M2.49707 3.79609H11.7196C12.8176 3.79609 13.8057 3.98823 14.684 4.3725C15.5807 4.75677 16.3401 5.27829 16.9622 5.93704C17.6027 6.5775 18.0876 7.3369 18.417 8.21524C18.7647 9.07528 18.9385 9.99021 18.9385 10.96C18.9385 11.9299 18.7647 12.8448 18.417 13.7049C18.0876 14.5649 17.6027 15.3243 16.9622 15.983C16.3401 16.6235 15.5807 17.1359 14.684 17.5201C13.8057 17.9044 12.8176 18.0966 11.7196 18.0966H8.20628V23.0098H2.49707V3.79609ZM10.5668 13.6774C11.3354 13.6774 11.9484 13.4121 12.4058 12.8814C12.8816 12.3508 13.1195 11.7103 13.1195 10.96C13.1195 10.2098 12.8908 9.56934 12.4333 9.03868C11.9758 8.50801 11.3628 8.24268 10.5943 8.24268H8.20628V13.6774H10.5668ZM20.9656 3.79609H30.1881C31.2861 3.79609 32.2742 3.98823 33.1525 4.3725C34.0492 4.75677 34.8086 5.27829 35.4307 5.93704C36.0712 6.5775 36.5561 7.3369 36.8855 8.21524C37.2332 9.07528 37.407 9.99021 37.407 10.96C37.407 12.2776 37.0959 13.4853 36.4738 14.5832C35.8516 15.6811 34.9916 16.5412 33.8936 17.1633L37.7364 23.0098H31.0116L27.7453 18.0966H26.6748V23.0098H20.9656V3.79609ZM29.0353 13.6774C29.8039 13.6774 30.4169 13.4121 30.8743 12.8814C31.3501 12.3508 31.588 11.7103 31.588 10.96C31.588 10.2098 31.3593 9.56934 30.9018 9.03868C30.4443 8.50801 29.8313 8.24268 29.0628 8.24268H26.6748V13.6774H29.0353ZM45.8402 8.07799V11.4267H52.5101V15.5164H45.8402V18.7279H52.5101V23.0098H40.131V3.79609H52.5101V8.07799H45.8402ZM55.6778 3.79609H64.9003C65.9983 3.79609 66.9864 3.98823 67.8647 4.3725C68.7614 4.75677 69.5208 5.27829 70.1429 5.93704C70.7834 6.5775 71.2683 7.3369 71.5977 8.21524C71.9454 9.07528 72.1192 9.99021 72.1192 10.96C72.1192 11.9299 71.9454 12.8448 71.5977 13.7049C71.2683 14.5649 70.7834 15.3243 70.1429 15.983C69.5208 16.6235 68.7614 17.1359 67.8647 17.5201C66.9864 17.9044 65.9983 18.0966 64.9003 18.0966H61.387V23.0098H55.6778V3.79609ZM63.7475 13.6774C64.5161 13.6774 65.1291 13.4121 65.5866 12.8814C66.0623 12.3508 66.3002 11.7103 66.3002 10.96C66.3002 10.2098 66.0715 9.56934 65.614 9.03868C65.1565 8.50801 64.5435 8.24268 63.775 8.24268H61.387V13.6774H63.7475ZM86.0588 14.5832H77.1107V23.0098H74.6129V3.79609H77.1107V12.3325H86.0588V3.79609H88.5565V23.0098H86.0588V14.5832ZM101.733 23.4489C100.196 23.4489 98.8147 23.1745 97.5887 22.6255C96.3627 22.0582 95.3196 21.308 94.4596 20.3747C93.6179 19.4415 92.9682 18.371 92.5108 17.1633C92.0533 15.9556 91.8246 14.7021 91.8246 13.4029C91.8246 12.1037 92.0533 10.8503 92.5108 9.64254C92.9682 8.43482 93.6179 7.36434 94.4596 6.43111C95.3196 5.49787 96.3627 4.75677 97.5887 4.20781C98.8147 3.64055 100.196 3.35692 101.733 3.35692C103.27 3.35692 104.652 3.64055 105.878 4.20781C107.104 4.75677 108.138 5.49787 108.98 6.43111C109.84 7.36434 110.498 8.43482 110.956 9.64254C111.413 10.8503 111.642 12.1037 111.642 13.4029C111.642 14.7021 111.413 15.9556 110.956 17.1633C110.498 18.371 109.84 19.4415 108.98 20.3747C108.138 21.308 107.104 22.0582 105.878 22.6255C104.652 23.1745 103.27 23.4489 101.733 23.4489ZM101.733 21.1982C102.85 21.1982 103.856 20.9786 104.753 20.5394C105.668 20.1003 106.436 19.5239 107.058 18.8102C107.68 18.0783 108.156 17.2457 108.486 16.3124C108.833 15.3792 109.007 14.4094 109.007 13.4029C109.007 12.3965 108.833 11.4267 108.486 10.4934C108.156 9.54189 107.68 8.7093 107.058 7.99565C106.436 7.2637 105.668 6.68729 104.753 6.26642C103.856 5.82725 102.85 5.60767 101.733 5.60767C100.599 5.60767 99.5832 5.82725 98.6866 6.26642C97.79 6.68729 97.0214 7.2637 96.381 7.99565C95.7588 8.7093 95.2739 9.54189 94.9262 10.4934C94.5968 11.4267 94.4321 12.3965 94.4321 13.4029C94.4321 14.4094 94.5968 15.3792 94.9262 16.3124C95.2739 17.2457 95.7588 18.0783 96.381 18.8102C97.0214 19.5239 97.79 20.1003 98.6866 20.5394C99.5832 20.9786 100.599 21.1982 101.733 21.1982ZM114.682 3.79609H117.179V16.779C117.179 17.3829 117.28 17.9502 117.481 18.4808C117.683 19.0115 117.957 19.4781 118.305 19.8807C118.671 20.2833 119.11 20.6035 119.622 20.8414C120.135 21.0792 120.702 21.1982 121.324 21.1982C121.964 21.1982 122.541 21.0792 123.053 20.8414C123.584 20.6035 124.032 20.2833 124.398 19.8807C124.764 19.4781 125.048 19.0115 125.249 18.4808C125.45 17.9502 125.551 17.3829 125.551 16.779V3.79609H128.049V16.779C128.049 17.694 127.893 18.554 127.582 19.3592C127.271 20.1643 126.823 20.8688 126.237 21.4727C125.652 22.0765 124.938 22.5614 124.096 22.9274C123.273 23.2751 122.349 23.4489 121.324 23.4489C120.318 23.4489 119.403 23.2751 118.579 22.9274C117.774 22.5614 117.079 22.0765 116.493 21.4727C115.926 20.8688 115.478 20.1643 115.148 19.3592C114.837 18.554 114.682 17.694 114.682 16.779V3.79609ZM133.728 16.8888C133.728 18.2063 134.121 19.2585 134.908 20.0454C135.695 20.8139 136.747 21.1982 138.065 21.1982C139.181 21.1982 140.096 20.9054 140.81 20.3199C141.523 19.7343 141.88 18.9383 141.88 17.9319C141.88 17.3463 141.77 16.8614 141.551 16.4771C141.331 16.0928 141.038 15.7726 140.672 15.5164C140.325 15.242 139.931 15.0315 139.492 14.8851C139.071 14.7204 138.65 14.574 138.229 14.446C137.369 14.1715 136.555 13.8878 135.787 13.5951C135.018 13.3023 134.341 12.9455 133.755 12.5246C133.188 12.0854 132.74 11.5456 132.41 10.9052C132.081 10.2647 131.916 9.45955 131.916 8.48972C131.916 7.72117 132.063 7.02582 132.356 6.40366C132.667 5.7815 133.088 5.24169 133.618 4.78422C134.149 4.32675 134.78 3.97908 135.512 3.74119C136.244 3.48501 137.04 3.35692 137.9 3.35692C138.778 3.35692 139.584 3.50331 140.316 3.79609C141.047 4.07057 141.679 4.46399 142.209 4.97636C142.74 5.48872 143.161 6.11088 143.472 6.84283C143.783 7.55648 143.939 8.35248 143.939 9.23082H141.441C141.423 8.13289 141.102 7.25455 140.48 6.5958C139.876 5.93704 139.035 5.60767 137.955 5.60767C136.894 5.60767 136.034 5.86385 135.375 6.37621C134.734 6.88858 134.414 7.59308 134.414 8.48972C134.414 9.02038 134.515 9.4687 134.716 9.83467C134.917 10.1823 135.183 10.4843 135.512 10.7405C135.841 10.9783 136.217 11.1888 136.637 11.3718C137.077 11.5365 137.525 11.6828 137.982 11.8109C138.714 12.0488 139.455 12.3142 140.206 12.6069C140.974 12.8997 141.67 13.2657 142.292 13.7049C142.914 14.144 143.417 14.6838 143.801 15.3243C144.186 15.9465 144.378 16.7241 144.378 17.6574C144.378 18.5906 144.204 19.4232 143.856 20.1552C143.527 20.8688 143.069 21.4727 142.484 21.9667C141.898 22.4608 141.212 22.8268 140.425 23.0647C139.638 23.3208 138.788 23.4489 137.873 23.4489C136.939 23.4489 136.07 23.3025 135.265 23.0098C134.46 22.6987 133.755 22.2687 133.152 21.7197C132.566 21.1524 132.099 20.4662 131.752 19.6611C131.404 18.8377 131.23 17.9136 131.23 16.8888H133.728ZM150.315 6.04683V12.3325H158.604V14.5832H150.315V20.759H158.604V23.0098H147.817V3.79609H158.604V6.04683H150.315Z" fill="#494A50"/>
</svg>
