<svg width="26" height="25" viewBox="0 0 26 25" fill="none" xmlns="http://www.w3.org/2000/svg">
<path fill-rule="evenodd" clip-rule="evenodd" d="M4.9375 0H20.5625C23.1513 0 25.25 2.09867 25.25 4.6875V20.3125C25.25 22.9013 23.1513 25 20.5625 25H4.9375C2.34867 25 0.25 22.9013 0.25 20.3125V4.6875C0.25 2.09867 2.34867 0 4.9375 0ZM17.4375 16.3462H19.8681L20.5625 13.101H17.4375V10.9375C17.2727 10.021 17.5306 9.36333 18.8264 9.49519H20.5625V6.25C20.2684 6.34078 19.2598 6.25 18.1319 6.25C15.636 6.25 13.9586 7.80331 13.9653 10.5769V13.101H11.1875V16.3462H13.9653V25H17.4375V16.3462Z" fill="white"/>
</svg>
