<svg width="26" height="26" viewBox="0 0 26 26" fill="none" xmlns="http://www.w3.org/2000/svg">
<path fill-rule="evenodd" clip-rule="evenodd" d="M7.92 0H17.424C21.7974 0 25.344 3.54658 25.344 7.92V17.424C25.344 21.7974 21.7974 25.344 17.424 25.344H7.92C3.54658 25.344 0 21.7974 0 17.424V7.92C0 3.54658 3.54658 0 7.92 0ZM17.424 22.968C20.4811 22.968 22.968 20.4811 22.968 17.424V7.92C22.968 4.86288 20.4811 2.376 17.424 2.376H7.92C4.86288 2.376 2.376 4.86288 2.376 7.92V17.424C2.376 20.4811 4.86288 22.968 7.92 22.968H17.424ZM6.336 12.672C6.336 9.17295 9.17295 6.336 12.672 6.336C16.1711 6.336 19.008 9.17295 19.008 12.672C19.008 16.1711 16.1711 19.008 12.672 19.008C9.17295 19.008 6.336 16.1711 6.336 12.672ZM8.712 12.672C8.712 14.8548 10.4892 16.632 12.672 16.632C14.8548 16.632 16.632 14.8548 16.632 12.672C16.632 10.4877 14.8548 8.712 12.672 8.712C10.4892 8.712 8.712 10.4877 8.712 12.672ZM19.4832 6.70507C19.9495 6.70507 20.3275 6.32708 20.3275 5.8608C20.3275 5.39452 19.9495 5.01653 19.4832 5.01653C19.0169 5.01653 18.6389 5.39452 18.6389 5.8608C18.6389 6.32708 19.0169 6.70507 19.4832 6.70507Z" fill="white"/>
</svg>
