<svg width="143" height="35" viewBox="0 0 143 35" fill="none" xmlns="http://www.w3.org/2000/svg">
<path d="M47.9466 2.84345C49.2433 2.84345 50.32 3.27182 51.1768 4.12857C52.0335 4.98532 52.4619 6.06783 52.4619 7.37611C52.4619 8.68438 52.0335 9.7669 51.1768 10.6236C50.32 11.4688 49.2433 11.8914 47.9466 11.8914H45.689V15H42.0767V2.84345H47.9466ZM47.1825 9.09539C47.6456 9.09539 48.0276 8.9333 48.3287 8.60913C48.6413 8.28495 48.7976 7.87395 48.7976 7.37611C48.7976 6.87827 48.6413 6.46726 48.3287 6.14309C48.0276 5.81891 47.6514 5.65682 47.1998 5.65682H45.689V9.09539H47.1825ZM64.0452 7.37611C64.0452 8.18654 63.8658 8.92751 63.5068 9.59902C63.1595 10.2589 62.6733 10.7857 62.0481 11.1794L63.9931 15H59.8425L58.2795 11.8914H57.2723V15H53.66V2.84345H59.5299C60.8266 2.84345 61.9033 3.27182 62.7601 4.12857C63.6168 4.98532 64.0452 6.06783 64.0452 7.37611ZM57.2723 5.65682V9.09539H58.7658C59.2289 9.09539 59.611 8.9333 59.912 8.60913C60.2246 8.28495 60.3809 7.87395 60.3809 7.37611C60.3809 6.87827 60.2246 6.46726 59.912 6.14309C59.611 5.81891 59.2347 5.65682 58.7832 5.65682H57.2723ZM65.6843 15V2.84345H73.4992V5.55263H69.2965V7.67134H73.4992V10.2589H69.2965V12.2908H73.4992V15H65.6843ZM81.4076 2.84345C82.7043 2.84345 83.7811 3.27182 84.6378 4.12857C85.4945 4.98532 85.9229 6.06783 85.9229 7.37611C85.9229 8.68438 85.4945 9.7669 84.6378 10.6236C83.7811 11.4688 82.7043 11.8914 81.4076 11.8914H79.15V15H75.5378V2.84345H81.4076ZM80.6435 9.09539C81.1066 9.09539 81.4887 8.9333 81.7897 8.60913C82.1023 8.28495 82.2586 7.87395 82.2586 7.37611C82.2586 6.87827 82.1023 6.46726 81.7897 6.14309C81.4887 5.81891 81.1124 5.65682 80.6609 5.65682H79.15V9.09539H80.6435ZM42.1496 30V19.941H43.4573V24.4101H48.1419V19.941H49.4496V30H48.1419V25.5884H43.4573V30H42.1496ZM60.0973 28.7067C59.1584 29.7222 57.9035 30.2299 56.3323 30.2299C54.7612 30.2299 53.5015 29.7222 52.553 28.7067C51.6142 27.6912 51.1448 26.4458 51.1448 24.9705C51.1448 23.4952 51.6142 22.2498 52.553 21.2343C53.5015 20.2188 54.7612 19.7111 56.3323 19.7111C57.9035 19.7111 59.1584 20.2188 60.0973 21.2343C61.0457 22.2498 61.5199 23.4952 61.5199 24.9705C61.5199 26.4458 61.0457 27.6912 60.0973 28.7067ZM53.5446 27.8732C54.2343 28.6588 55.1636 29.0516 56.3323 29.0516C57.5011 29.0516 58.4304 28.6588 59.1201 27.8732C59.8099 27.0877 60.15 26.1201 60.1404 24.9705C60.15 23.8209 59.8099 22.8533 59.1201 22.0678C58.4304 21.2822 57.5011 20.8894 56.3323 20.8894C55.1636 20.8894 54.2343 21.2822 53.5446 22.0678C52.8548 22.8533 52.5099 23.8209 52.5099 24.9705C52.5099 26.1201 52.8548 27.0877 53.5446 27.8732ZM69.2923 29.3102C68.6408 29.9234 67.7499 30.2299 66.6195 30.2299C65.489 30.2299 64.5933 29.9234 63.9323 29.3102C63.2808 28.6971 62.9551 27.8253 62.9551 26.6949V19.941H64.2628V26.623C64.2628 27.4086 64.4735 28.0121 64.8951 28.4337C65.3166 28.8456 65.8914 29.0516 66.6195 29.0516C67.3475 29.0516 67.9176 28.8456 68.3295 28.4337C68.751 28.0121 68.9618 27.4086 68.9618 26.623V19.941H70.2838V26.6949C70.2838 27.8253 69.9533 28.6971 69.2923 29.3102ZM75.3099 30.2299C74.1699 30.2299 73.279 29.9281 72.6371 29.3246C71.9953 28.7211 71.6743 27.878 71.6743 26.7955H72.982C72.982 27.4948 73.188 28.0505 73.5999 28.4624C74.0214 28.8743 74.5867 29.0803 75.2956 29.0803C75.9279 29.0803 76.4164 28.9366 76.7613 28.6492C77.1062 28.3522 77.2786 27.9403 77.2786 27.4134C77.2786 26.9727 77.1541 26.6183 76.905 26.35C76.6655 26.0818 76.2536 25.8471 75.6692 25.6459L74.0023 25.0567C72.6515 24.6256 71.9761 23.7443 71.9761 22.4126C71.9761 21.6079 72.2683 20.9565 72.8527 20.4583C73.4371 19.9602 74.1987 19.7111 75.1375 19.7111C76.1242 19.7111 76.9146 19.9889 77.5086 20.5445C78.1025 21.1002 78.3995 21.8474 78.3995 22.7863H77.0918C77.0918 22.1636 76.9194 21.6846 76.5745 21.3493C76.2296 21.0044 75.7363 20.8319 75.0944 20.8319C74.5388 20.8319 74.0981 20.9708 73.7724 21.2487C73.4562 21.5169 73.2981 21.8809 73.2981 22.3408C73.2981 22.7623 73.4371 23.112 73.7149 23.3898C73.9927 23.6676 74.443 23.9119 75.0657 24.1227L76.6176 24.6687C77.9397 25.1381 78.6007 26.0435 78.6007 27.3847C78.6007 28.2373 78.2989 28.927 77.6954 29.4539C77.1014 29.9713 76.3063 30.2299 75.3099 30.2299ZM80.3199 30V19.941H86.0392V21.1193H81.6276V24.4101H86.0392V25.5884H81.6276V28.8217H86.0392V30H80.3199Z" fill="white"/>
<path d="M30.4445 2.01058C25.508 1.83599 20.6753 3.83069 17.1831 7.32285L10.5462 13.9597C8.7547 15.7513 7.35862 17.9599 6.50896 20.3468C5.65929 22.7338 5.3458 25.3278 5.60238 27.8484L5.68217 28.6322L19.2994 18.5049L32.3038 2.01058H30.4445Z" fill="#F7B631"/>
<path d="M32.3042 2.0105L5.68262 28.6321L6.46647 28.7119C7.0377 28.77 7.61229 28.7989 8.18784 28.7989C10.1518 28.7989 12.122 28.4625 13.968 27.8053C16.355 26.9556 18.5636 25.5596 20.3551 23.768L26.992 17.1312C30.4842 13.639 32.4788 8.8054 32.3043 3.86979V2.0105H32.3042Z" fill="#F89258"/>
<path d="M13.1437 20.3076C12.8871 17.787 13.2006 15.193 14.0503 12.8061C14.681 11.0341 15.5425 9.32539 16.6772 7.82935L12.9629 11.5436C11.8283 13.0397 10.9668 14.7484 10.3361 16.5203C9.48644 18.9072 9.17295 21.5012 9.42953 24.0218L9.50932 24.8057L12.4847 23.2023L13.2235 21.0915L13.1437 20.3076Z" fill="#FFD782"/>
<path d="M15.7292 21.2582C15.1537 21.2582 14.5791 21.2293 14.0078 21.1712L13.224 21.0914L9.50977 24.8056L10.2936 24.8854C10.8649 24.9435 11.4394 24.9724 12.015 24.9724C13.9789 24.9724 15.9492 24.6359 17.7952 23.9788C19.9281 23.2196 21.8807 21.9483 23.6305 20.4933L26.9924 17.1314C27 17.1238 27.0074 17.1158 27.015 17.1082C25.3983 18.4771 23.4861 19.5609 21.5094 20.2645C19.6634 20.9217 17.6931 21.2582 15.7292 21.2582Z" fill="#D56F35"/>
<path d="M22.5203 10.4233L2.58545 30.3582L0.00268555 34.313L10.7381 24.5296L23.2064 11.1094L22.5203 10.4233Z" fill="#ECF3FB"/>
<path d="M0 34.3105L23.2002 11.1104L23.8861 11.7963L0.685921 34.9965L0 34.3105Z" fill="#E0E6F5"/>
</svg>
