<svg width="193" height="61" viewBox="0 0 193 61" fill="none" xmlns="http://www.w3.org/2000/svg">
<path d="M50.6833 21.0958H58.9641C59.9499 21.0958 60.8371 21.2683 61.6257 21.6134C62.4308 21.9584 63.1127 22.4267 63.6713 23.0181C64.2463 23.5932 64.6817 24.275 64.9775 25.0637C65.2897 25.8359 65.4457 26.6574 65.4457 27.5282C65.4457 28.399 65.2897 29.2205 64.9775 29.9927C64.6817 30.7649 64.2463 31.4468 63.6713 32.0383C63.1127 32.6133 62.4308 33.0734 61.6257 33.4184C60.8371 33.7634 59.9499 33.9359 58.9641 33.9359H55.8095V38.3474H50.6833V21.0958ZM57.929 29.9681C58.619 29.9681 59.1695 29.7298 59.5802 29.2534C60.0074 28.7769 60.221 28.2018 60.221 27.5282C60.221 26.8546 60.0156 26.2795 59.6048 25.803C59.1941 25.3266 58.6437 25.0883 57.9536 25.0883H55.8095V29.9681H57.929ZM67.2658 21.0958H75.5466C76.5324 21.0958 77.4196 21.2683 78.2083 21.6134C79.0133 21.9584 79.6952 22.4267 80.2538 23.0181C80.8289 23.5932 81.2642 24.275 81.56 25.0637C81.8722 25.8359 82.0282 26.6574 82.0282 27.5282C82.0282 28.7112 81.7489 29.7956 81.1903 30.7814C80.6317 31.7672 79.8595 32.5394 78.8737 33.098L82.324 38.3474H76.2859L73.3532 33.9359H72.392V38.3474H67.2658V21.0958ZM74.5115 29.9681C75.2015 29.9681 75.752 29.7298 76.1627 29.2534C76.5899 28.7769 76.8035 28.2018 76.8035 27.5282C76.8035 26.8546 76.5981 26.2795 76.1874 25.803C75.7766 25.3266 75.2262 25.0883 74.5361 25.0883H72.392V29.9681H74.5115ZM89.6003 24.9405V27.9472H95.589V31.6193H89.6003V34.5028H95.589V38.3474H84.4741V21.0958H95.589V24.9405H89.6003ZM98.4332 21.0958H106.714C107.7 21.0958 108.587 21.2683 109.376 21.6134C110.181 21.9584 110.863 22.4267 111.421 23.0181C111.996 23.5932 112.432 24.275 112.727 25.0637C113.04 25.8359 113.196 26.6574 113.196 27.5282C113.196 28.399 113.04 29.2205 112.727 29.9927C112.432 30.7649 111.996 31.4468 111.421 32.0383C110.863 32.6133 110.181 33.0734 109.376 33.4184C108.587 33.7634 107.7 33.9359 106.714 33.9359H103.559V38.3474H98.4332V21.0958ZM105.679 29.9681C106.369 29.9681 106.919 29.7298 107.33 29.2534C107.757 28.7769 107.971 28.2018 107.971 27.5282C107.971 26.8546 107.766 26.2795 107.355 25.803C106.944 25.3266 106.394 25.0883 105.704 25.0883H103.559V29.9681H105.679ZM125.712 30.7814H117.677V38.3474H115.435V21.0958H117.677V28.7605H125.712V21.0958H127.954V38.3474H125.712V30.7814ZM139.786 38.7417C138.406 38.7417 137.165 38.4953 136.064 38.0024C134.963 37.493 134.027 36.8194 133.255 35.9815C132.499 35.1435 131.916 34.1824 131.505 33.098C131.094 32.0136 130.889 30.8882 130.889 29.7216C130.889 28.5551 131.094 27.4296 131.505 26.3452C131.916 25.2609 132.499 24.2997 133.255 23.4618C134.027 22.6238 134.963 21.9584 136.064 21.4655C137.165 20.9562 138.406 20.7015 139.786 20.7015C141.166 20.7015 142.406 20.9562 143.507 21.4655C144.608 21.9584 145.536 22.6238 146.292 23.4618C147.064 24.2997 147.656 25.2609 148.066 26.3452C148.477 27.4296 148.683 28.5551 148.683 29.7216C148.683 30.8882 148.477 32.0136 148.066 33.098C147.656 34.1824 147.064 35.1435 146.292 35.9815C145.536 36.8194 144.608 37.493 143.507 38.0024C142.406 38.4953 141.166 38.7417 139.786 38.7417ZM139.786 36.7208C140.788 36.7208 141.692 36.5237 142.497 36.1294C143.318 35.735 144.008 35.2175 144.567 34.5767C145.125 33.9195 145.553 33.1719 145.848 32.334C146.16 31.4961 146.317 30.6253 146.317 29.7216C146.317 28.818 146.16 27.9472 145.848 27.1092C145.553 26.2549 145.125 25.5073 144.567 24.8665C144.008 24.2093 143.318 23.6918 142.497 23.3139C141.692 22.9196 140.788 22.7224 139.786 22.7224C138.767 22.7224 137.855 22.9196 137.05 23.3139C136.245 23.6918 135.555 24.2093 134.98 24.8665C134.421 25.5073 133.986 26.2549 133.674 27.1092C133.378 27.9472 133.23 28.818 133.23 29.7216C133.23 30.6253 133.378 31.4961 133.674 32.334C133.986 33.1719 134.421 33.9195 134.98 34.5767C135.555 35.2175 136.245 35.735 137.05 36.1294C137.855 36.5237 138.767 36.7208 139.786 36.7208ZM151.412 21.0958H153.654V32.753C153.654 33.2952 153.745 33.8045 153.925 34.281C154.106 34.7574 154.353 35.1764 154.665 35.5379C154.993 35.8993 155.388 36.1869 155.848 36.4004C156.308 36.614 156.817 36.7208 157.376 36.7208C157.951 36.7208 158.468 36.614 158.928 36.4004C159.405 36.1869 159.807 35.8993 160.136 35.5379C160.465 35.1764 160.719 34.7574 160.9 34.281C161.081 33.8045 161.171 33.2952 161.171 32.753V21.0958H163.414V32.753C163.414 33.5745 163.274 34.3467 162.995 35.0696C162.715 35.7925 162.313 36.4251 161.787 36.9673C161.261 37.5095 160.621 37.9449 159.865 38.2735C159.126 38.5856 158.296 38.7417 157.376 38.7417C156.472 38.7417 155.651 38.5856 154.911 38.2735C154.188 37.9449 153.564 37.5095 153.038 36.9673C152.529 36.4251 152.126 35.7925 151.831 35.0696C151.551 34.3467 151.412 33.5745 151.412 32.753V21.0958ZM168.513 32.8516C168.513 34.0345 168.866 34.9792 169.573 35.6857C170.279 36.3758 171.224 36.7208 172.407 36.7208C173.409 36.7208 174.231 36.458 174.871 35.9322C175.512 35.4064 175.833 34.6917 175.833 33.7881C175.833 33.2623 175.734 32.8269 175.537 32.4819C175.34 32.1368 175.077 31.8493 174.748 31.6193C174.436 31.3728 174.083 31.1839 173.688 31.0525C173.311 30.9046 172.933 30.7731 172.555 30.6581C171.783 30.4117 171.051 30.157 170.361 29.8941C169.671 29.6313 169.063 29.3109 168.538 28.933C168.028 28.5387 167.626 28.054 167.33 27.4789C167.034 26.9039 166.886 26.1809 166.886 25.3101C166.886 24.6201 167.018 23.9957 167.281 23.4371C167.56 22.8785 167.938 22.3938 168.414 21.9831C168.891 21.5723 169.458 21.2601 170.115 21.0465C170.772 20.8165 171.487 20.7015 172.259 20.7015C173.048 20.7015 173.771 20.8329 174.428 21.0958C175.085 21.3423 175.652 21.6955 176.128 22.1556C176.605 22.6156 176.983 23.1742 177.262 23.8314C177.541 24.4722 177.681 25.1869 177.681 25.9756H175.438C175.422 24.9898 175.134 24.2011 174.576 23.6096C174.033 23.0181 173.278 22.7224 172.308 22.7224C171.355 22.7224 170.583 22.9524 169.992 23.4125C169.417 23.8725 169.129 24.5051 169.129 25.3101C169.129 25.7866 169.219 26.1892 169.4 26.5178C169.581 26.8299 169.819 27.101 170.115 27.331C170.411 27.5446 170.747 27.7336 171.125 27.8979C171.52 28.0458 171.922 28.1772 172.333 28.2922C172.99 28.5058 173.656 28.744 174.329 29.0069C175.019 29.2698 175.644 29.5984 176.202 29.9927C176.761 30.387 177.213 30.8717 177.558 31.4468C177.903 32.0054 178.075 32.7037 178.075 33.5416C178.075 34.3795 177.919 35.1271 177.607 35.7843C177.311 36.4251 176.901 36.9673 176.375 37.4109C175.849 37.8545 175.233 38.1831 174.526 38.3967C173.82 38.6267 173.056 38.7417 172.234 38.7417C171.396 38.7417 170.616 38.6103 169.893 38.3474C169.17 38.0681 168.538 37.682 167.995 37.1891C167.47 36.6798 167.051 36.0636 166.739 35.3407C166.426 34.6014 166.27 33.7716 166.27 32.8516H168.513ZM183.406 23.1167V28.7605H190.849V30.7814H183.406V36.3265H190.849V38.3474H181.163V21.0958H190.849V23.1167H183.406Z" fill="white"/>
<path d="M43.2046 0.0150196C36.1992 -0.232756 29.341 2.59796 24.3851 7.55376L14.9667 16.9723C12.4242 19.5147 10.443 22.649 9.23727 26.0363C8.0315 29.4237 7.58662 33.1049 7.95074 36.6819L8.06397 37.7943L27.3885 23.4224L45.8432 0.0150196H43.2046Z" fill="#F7B631"/>
<path d="M45.8438 0.0148926L8.06458 37.7941L9.17696 37.9073C9.98761 37.9898 10.803 38.0308 11.6198 38.0308C14.4069 38.0308 17.2028 37.5534 19.8225 36.6208C23.2099 35.415 26.3442 33.4338 28.8866 30.8914L38.3051 21.473C43.261 16.5171 46.0916 9.65767 45.8439 2.65345V0.0148926H45.8438Z" fill="#F89258"/>
<path d="M18.6526 25.9806C18.2885 22.4036 18.7334 18.7224 19.9391 15.335C20.8342 12.8204 22.0568 10.3955 23.667 8.27246L18.396 13.5434C16.7858 15.6665 15.5633 18.0914 14.6682 20.6059C13.4625 23.9933 13.0176 27.6744 13.3817 31.2515L13.4949 32.3639L17.7174 30.0885L18.7658 27.093L18.6526 25.9806Z" fill="#FFD782"/>
<path d="M22.3215 27.3296C21.5048 27.3296 20.6893 27.2886 19.8787 27.2061L18.7663 27.0928L13.4954 32.3637L14.6078 32.477C15.4185 32.5595 16.2339 32.6004 17.0506 32.6004C19.8377 32.6004 22.6337 32.123 25.2534 31.1904C28.2803 30.113 31.0513 28.3089 33.5344 26.2441L38.3053 21.4732C38.3162 21.4623 38.3266 21.4511 38.3374 21.4402C36.0431 23.3829 33.3295 24.9209 30.5243 25.9195C27.9046 26.852 25.1086 27.3296 22.3215 27.3296Z" fill="#D56F35"/>
<path d="M31.9589 11.9536L3.66892 40.2436L0.00366211 45.8559L15.2385 31.9721L32.9324 12.9272L31.9589 11.9536Z" fill="#ECF3FB"/>
<path d="M0 45.8525L32.9238 12.9287L33.8972 13.9021L0.973403 46.8259L0 45.8525Z" fill="#E0E6F5"/>
</svg>
