<svg width="76" height="78" viewBox="0 0 76 78" fill="none" xmlns="http://www.w3.org/2000/svg">
<path fill-rule="evenodd" clip-rule="evenodd" d="M61.1522 10.2318C43.1522 -7.54863 27.82 0.537678 25.1522 14.0838C22.4843 27.63 -2.29876 30.3347 0.761187 46.3347C3.82114 62.3347 37.1522 52.8347 37.1522 67.3347C37.1522 81.8347 75.6896 81.3347 75.6896 62.3347C75.6896 43.3347 79.1522 28.0122 61.1522 10.2318Z" fill="white" fill-opacity="0.2"/>
<mask id="mask0_1532_3343" style="mask-type:alpha" maskUnits="userSpaceOnUse" x="0" y="0" width="76" height="78">
<path fill-rule="evenodd" clip-rule="evenodd" d="M61.1522 10.2318C43.1522 -7.54863 27.82 0.537678 25.1522 14.0838C22.4843 27.63 -2.29876 30.3347 0.761187 46.3347C3.82114 62.3347 37.1522 52.8347 37.1522 67.3347C37.1522 81.8347 75.6896 81.3347 75.6896 62.3347C75.6896 43.3347 79.1522 28.0122 61.1522 10.2318Z" fill="white"/>
</mask>
<g mask="url(#mask0_1532_3343)">
<g opacity="0.2">
<rect x="0.5" width="76" height="78" fill="#4780D8"/>
</g>
</g>
<path fill-rule="evenodd" clip-rule="evenodd" d="M50.5 19C50.5 23.418 54.082 27 58.5 27C62.918 27 66.5 23.418 66.5 19C66.5 14.582 62.918 11 58.5 11C54.082 11 50.5 14.582 50.5 19Z" stroke="#333333" stroke-width="3" stroke-linecap="round" stroke-linejoin="round"/>
<path fill-rule="evenodd" clip-rule="evenodd" d="M50.5 59C50.5 63.418 54.082 67 58.5 67C62.918 67 66.5 63.418 66.5 59C66.5 54.582 62.918 51 58.5 51C54.082 51 50.5 54.582 50.5 59Z" stroke="#333333" stroke-width="3" stroke-linecap="round" stroke-linejoin="round"/>
<path fill-rule="evenodd" clip-rule="evenodd" d="M10.5 39C10.5 45.076 15.426 50 21.5 50C27.574 50 32.5 45.076 32.5 39C32.5 32.924 27.574 28 21.5 28C15.426 28 10.5 32.924 10.5 39Z" stroke="#333333" stroke-width="3" stroke-linecap="round" stroke-linejoin="round"/>
<path d="M16.5 39C16.5 36.244 18.744 34 21.5 34" stroke="#008AD0" stroke-width="3" stroke-linecap="round" stroke-linejoin="round"/>
<path d="M31.5 44L51.508 55.116" stroke="#333333" stroke-width="3" stroke-linecap="round" stroke-linejoin="round"/>
<path d="M51.5078 22.8848L31.4998 34.0008" stroke="#333333" stroke-width="3" stroke-linecap="round" stroke-linejoin="round"/>
</svg>
