<svg width="30" height="335" viewBox="0 0 30 335" fill="none" xmlns="http://www.w3.org/2000/svg">
<path d="M0.292893 327.707C-0.0976311 327.317 -0.0976311 326.683 0.292893 326.293L6.65685 319.929C7.04738 319.538 7.68054 319.538 8.07107 319.929C8.46159 320.319 8.46159 320.953 8.07107 321.343L2.41421 327L8.07107 332.657C8.46159 333.047 8.46159 333.681 8.07107 334.071C7.68054 334.462 7.04738 334.462 6.65685 334.071L0.292893 327.707ZM29 327H30V328H29V327ZM29 1V0H30V1H29ZM1 2C0.447715 2 0 1.55231 0 1C0 0.447723 0.447715 0 1 0V2ZM1 326H29V328H1V326ZM28 327V1H30V327H28ZM29 2H1V0H29V2Z" fill="#4780D8"/>
</svg>
