<svg width="30" height="25" viewBox="0 0 30 25" fill="none" xmlns="http://www.w3.org/2000/svg">
<path d="M29.6875 2.95966C28.5758 3.46973 27.3967 3.8046 26.1893 3.95314C27.445 3.17123 28.411 1.93556 28.8655 0.461031C27.67 1.19618 26.362 1.71412 24.998 1.99247C23.8468 0.718555 22.237 -0.00301987 20.5528 9.50029e-06C17.1906 9.50029e-06 14.4617 2.82502 14.4617 6.30987C14.4617 6.80504 14.5155 7.28765 14.6208 7.74848C9.5582 7.48489 5.07134 4.97371 2.06672 1.15521C1.54208 2.08609 1.24283 3.17123 1.24283 4.328C1.24283 6.51634 2.31767 8.44815 3.95162 9.58C2.98422 9.54928 2.03804 9.27858 1.19245 8.79063V8.8711C1.19245 11.9277 3.29213 14.4783 6.07705 15.0593C5.18012 15.3109 4.2397 15.3478 3.32698 15.1672C4.10238 17.6747 6.35243 19.4987 9.01652 19.5517C6.93237 21.2416 4.30655 22.2523 1.45231 22.2523C0.966973 22.2517 0.48207 22.2223 0 22.164C2.69514 23.9539 5.89731 25 9.3366 25C20.5395 25 26.6647 15.3823 26.6647 7.04193C26.6647 6.76912 26.6647 6.49632 26.6458 6.22547C27.8376 5.33191 28.8669 4.22614 29.6856 2.95966H29.6875Z" fill="white"/>
</svg>
