<svg width="380" height="457" viewBox="0 0 380 457" fill="none" xmlns="http://www.w3.org/2000/svg">
<rect width="380" height="457" rx="10" fill="url(#paint0_linear)"/>
<path fill-rule="evenodd" clip-rule="evenodd" d="M130.679 324.451L146.648 315.221L135.354 303.915L130.679 324.451Z" fill="#B5D104"/>
<path fill-rule="evenodd" clip-rule="evenodd" d="M130.679 270.977L104.875 259.152L112.815 252.469L138.618 263.821L130.679 270.977Z" fill="#FDFFB3"/>
<path fill-rule="evenodd" clip-rule="evenodd" d="M166.169 307.458L172.553 301.066L154.21 282.703L166.169 307.458Z" fill="#B5D104"/>
<path fill-rule="evenodd" clip-rule="evenodd" d="M118.914 348.986L90.9783 336.223H123.753V344.229L118.914 348.986Z" fill="#B5D104"/>
<path fill-rule="evenodd" clip-rule="evenodd" d="M238.845 293.648L245.082 287.404L231.175 283.673L238.845 293.648Z" fill="#B5D104"/>
<path fill-rule="evenodd" clip-rule="evenodd" d="M151.03 407.779L162.478 401.162L175.389 385.395H159.756L151.03 407.779Z" fill="#B5D104"/>
<path fill-rule="evenodd" clip-rule="evenodd" d="M201.646 299.03L195.154 305.417L189.287 274.544H201.646V299.03Z" fill="#B5D104"/>
<path fill-rule="evenodd" clip-rule="evenodd" d="M182.796 305.417H195.155V251.47H182.796V305.417Z" fill="#82CDE2"/>
<path fill-rule="evenodd" clip-rule="evenodd" d="M182.796 251.47H195.155V229.278H182.796V251.47Z" fill="#FDFFB3"/>
<path fill-rule="evenodd" clip-rule="evenodd" d="M130.679 324.451L104.875 312.486V259.152L130.679 270.503V324.451Z" fill="#A0D7E8"/>
<path fill-rule="evenodd" clip-rule="evenodd" d="M86.1396 348.986H118.914V295.039H86.1396V348.986Z" fill="#82CDE2"/>
<path fill-rule="evenodd" clip-rule="evenodd" d="M86.1396 295.039H118.914V287.033H86.1396V295.039Z" fill="#FDFFB3"/>
<path fill-rule="evenodd" clip-rule="evenodd" d="M166.169 253.51L155.251 256.83V310.778L166.169 307.458V253.51Z" fill="#82CDE2"/>
<path fill-rule="evenodd" clip-rule="evenodd" d="M138.619 263.822L130.679 270.503V324.451L138.619 317.769V263.822Z" fill="#82CDE2"/>
<path fill-rule="evenodd" clip-rule="evenodd" d="M140.113 293.648V239.884L155.251 256.83V310.778L140.113 293.648Z" fill="#A0D7E8"/>
<path fill-rule="evenodd" clip-rule="evenodd" d="M140.113 239.884L151.029 236.563L166.169 253.51L155.251 256.83L140.113 239.884Z" fill="#FDFFB3"/>
<path fill-rule="evenodd" clip-rule="evenodd" d="M212.789 253.51L223.706 256.83V310.778L212.789 307.458V253.51Z" fill="#A0D7E8"/>
<path fill-rule="evenodd" clip-rule="evenodd" d="M238.845 293.648V239.884L223.706 256.83V310.778L238.845 293.648Z" fill="#82CDE2"/>
<path fill-rule="evenodd" clip-rule="evenodd" d="M238.845 239.884L227.928 236.563L212.789 253.51L223.706 256.83L238.845 239.884Z" fill="#FDFFB3"/>
<path fill-rule="evenodd" clip-rule="evenodd" d="M248.051 270.977L273.856 259.152L265.917 252.469L240.113 263.821L248.051 270.977Z" fill="#FDFFB3"/>
<path fill-rule="evenodd" clip-rule="evenodd" d="M248.051 324.451L273.856 312.486V259.152L248.051 270.503V324.451Z" fill="#82CDE2"/>
<path fill-rule="evenodd" clip-rule="evenodd" d="M240.113 263.822L248.051 270.503V324.451L240.113 317.769V263.822Z" fill="#A0D7E8"/>
<path fill-rule="evenodd" clip-rule="evenodd" d="M273.478 383.238L282.075 374.632L260.304 362.048L273.478 383.238ZM291.772 350.48L263.837 337.717H296.611V345.722L291.772 350.48Z" fill="#B5D104"/>
<path fill-rule="evenodd" clip-rule="evenodd" d="M258.998 350.48H291.772V296.532H258.998V350.48Z" fill="#A0D7E8"/>
<path fill-rule="evenodd" clip-rule="evenodd" d="M258.998 296.532H291.773V288.527H258.998V296.532Z" fill="#FDFFB3"/>
<path fill-rule="evenodd" clip-rule="evenodd" d="M112.795 337.954L138.599 326.13L130.659 319.447L104.855 330.798L112.795 337.954Z" fill="#FDFFB3"/>
<path fill-rule="evenodd" clip-rule="evenodd" d="M112.795 391.429L138.599 379.463V326.13L112.795 337.481V391.429Z" fill="#82CDE2"/>
<path fill-rule="evenodd" clip-rule="evenodd" d="M104.855 330.798L112.795 337.481V391.429L104.855 384.746V330.798Z" fill="#A0D7E8"/>
<path fill-rule="evenodd" clip-rule="evenodd" d="M140.113 350.511L151.03 353.831V407.779L140.113 404.459V350.511Z" fill="#A0D7E8"/>
<path fill-rule="evenodd" clip-rule="evenodd" d="M166.169 390.65V336.884L151.03 353.831V407.779L166.169 390.65Z" fill="#82CDE2"/>
<path fill-rule="evenodd" clip-rule="evenodd" d="M166.169 336.884L155.251 333.564L140.113 350.511L151.029 353.831L166.169 336.884Z" fill="#FDFFB3"/>
<path fill-rule="evenodd" clip-rule="evenodd" d="M201.646 410.454L195.155 416.841L189.288 385.968H201.646V410.454Z" fill="#B5D104"/>
<path fill-rule="evenodd" clip-rule="evenodd" d="M182.796 416.841H195.155V362.893H182.796V416.841Z" fill="#82CDE2"/>
<path fill-rule="evenodd" clip-rule="evenodd" d="M182.796 362.893H195.155V340.702H182.796V362.893Z" fill="#FDFFB3"/>
<path fill-rule="evenodd" clip-rule="evenodd" d="M275.261 335.247L252.648 319.362L261.696 313.941L284.405 329.354L275.261 335.247Z" fill="#FDFFB3"/>
<path fill-rule="evenodd" clip-rule="evenodd" d="M264.43 388.659L241.846 372.634L252.648 319.362L275.357 334.774L264.43 388.659Z" fill="#A0D7E8"/>
<path fill-rule="evenodd" clip-rule="evenodd" d="M284.405 329.354L275.357 334.774L264.43 388.66L273.478 383.238L284.405 329.354Z" fill="#82CDE2"/>
<path fill-rule="evenodd" clip-rule="evenodd" d="M212.423 390.597L265.097 356.515L268.074 363.037L233.457 409.06L212.423 390.597Z" fill="#82CDE2"/>
<path fill-rule="evenodd" clip-rule="evenodd" d="M209.445 384.075L243.642 342.569L265.097 356.515L230.479 402.538L209.445 384.075Z" fill="#A0D7E8"/>
<path fill-rule="evenodd" clip-rule="evenodd" d="M212.423 390.597L209.445 384.075L230.479 402.538L233.457 409.06L212.423 390.597Z" fill="#FDFFB3"/>
<path fill-rule="evenodd" clip-rule="evenodd" d="M233.457 409.06L258.229 384.259L254.24 381.429L233.457 409.06Z" fill="#B5D104"/>
<path fill-rule="evenodd" clip-rule="evenodd" d="M258.23 384.259L268.074 363.037L254.241 381.429L258.23 384.259Z" fill="#65BBD1"/>
<path fill-rule="evenodd" clip-rule="evenodd" d="M267.941 363.324L269.227 360.438L265.969 358.428L267.941 363.324Z" fill="#65BBD1"/>
<defs>
<linearGradient id="paint0_linear" x1="190" y1="0" x2="190" y2="607.5" gradientUnits="userSpaceOnUse">
<stop stop-color="#F8585D"/>
<stop offset="1" stop-color="#D2F30A"/>
</linearGradient>
</defs>
</svg>
