<svg width="380" height="457" viewBox="0 0 380 457" fill="none" xmlns="http://www.w3.org/2000/svg">
<g clip-path="url(#clip0)">
<rect width="380" height="457" rx="10" fill="url(#paint0_linear)"/>
<g opacity="0.9">
<path d="M-712.536 -228.831C-712.535 -228.815 -748.177 -30.5848 -596.841 87.7466C-521.136 146.925 -405.905 139.366 -294.769 128.659C-183.63 117.941 -76.5757 104.09 -17.2894 150.46C42.0424 196.846 48.471 254.337 73.7763 326.662C99.0798 398.981 143.271 486.07 278.14 591.511L278.346 591.249C143.52 485.835 99.3842 398.83 74.0905 326.552C48.7986 254.281 42.3595 196.674 -17.0841 150.197C-76.5734 103.706 -183.67 117.625 -294.8 128.328C-405.934 139.042 -521.089 146.558 -596.636 87.484C-672.218 28.3905 -701.111 -50.6663 -711.109 -114.963C-716.108 -147.11 -716.383 -175.565 -715.407 -195.982C-714.92 -206.191 -714.12 -214.388 -713.442 -220.035C-713.103 -222.857 -712.794 -225.043 -712.57 -226.521C-712.346 -228 -712.209 -228.769 -712.207 -228.771L-712.536 -228.831" fill="#FFB3B3"/>
<path d="M-710.681 -231.254C-710.682 -231.233 -740.453 -40.8043 -589.521 77.2112C-514.013 136.236 -401.964 131.864 -293.754 124.556C-185.539 117.233 -81.15 106.992 -21.0158 154.027C39.1735 201.085 49.0532 255.677 77.3055 324.711C105.555 393.738 152.181 477.135 285.855 581.644L286.107 581.321C152.479 476.843 105.918 393.538 77.6837 324.556C49.4509 255.581 39.5456 200.858 -20.7645 153.706C-81.1287 106.53 -185.577 116.843 -293.782 124.148C-401.99 131.465 -513.944 135.791 -589.269 76.8894C-664.636 17.9652 -694.887 -59.0488 -706.298 -121.344C-712.004 -152.492 -712.999 -179.957 -712.566 -199.634C-712.351 -209.471 -711.778 -217.362 -711.259 -222.793C-711 -225.509 -710.755 -227.609 -710.574 -229.029C-710.393 -230.451 -710.277 -231.188 -710.277 -231.19L-710.681 -231.254Z" fill="#FFB3B3"/>
<path d="M-708.826 -233.674C-708.827 -233.649 -732.728 -51.022 -582.2 66.6764C-506.892 125.546 -398.027 124.363 -292.742 120.452C-187.451 116.528 -85.7293 109.894 -24.7424 157.594C36.3082 205.325 49.6365 257.021 80.8368 322.763C112.033 388.498 161.091 468.2 293.571 571.775L293.869 571.394C161.436 467.851 112.451 388.243 81.2731 322.556C50.1003 256.876 36.7292 205.04 -24.4443 157.213C-85.6822 109.356 -187.481 116.062 -292.76 119.968C-398.043 123.888 -506.795 125.026 -581.902 66.2952C-657.055 7.53832 -688.663 -67.4334 -701.488 -127.728C-707.9 -157.876 -709.614 -184.351 -709.725 -203.287C-709.781 -212.756 -709.436 -220.339 -709.077 -225.554C-708.897 -228.162 -708.715 -230.177 -708.577 -231.54C-708.439 -232.903 -708.347 -233.61 -708.346 -233.612L-708.826 -233.674" fill="#FFB3B3"/>
<path d="M-706.971 -236.094C-706.973 -236.061 -724.999 -61.2358 -574.88 56.1417C-499.773 114.854 -394.093 116.862 -291.733 116.349C-189.365 115.823 -90.3104 112.795 -28.4695 161.162C33.4455 209.569 50.2248 258.373 84.37 320.821C118.512 383.262 170.001 459.268 301.286 561.907L301.63 561.467C170.393 458.859 118.979 382.945 84.8605 320.553C50.7454 258.164 33.9081 209.22 -28.1246 160.721C-90.2315 112.183 -189.383 115.281 -291.736 115.79C-394.094 116.311 -499.645 114.262 -574.536 55.7016C-649.474 -2.88912 -682.441 -75.8203 -696.677 -134.115C-703.796 -163.261 -706.229 -188.747 -706.884 -206.944C-707.212 -216.041 -707.093 -223.318 -706.894 -228.317C-706.795 -230.817 -706.675 -232.748 -706.579 -234.054C-706.485 -235.359 -706.415 -236.034 -706.415 -236.036L-706.971 -236.094Z" fill="#FFB3B3"/>
<path d="M-705.117 -238.509C-705.119 -238.47 -717.269 -71.4483 -567.56 45.6071C-492.657 104.16 -390.162 109.359 -290.726 112.245C-191.283 115.117 -94.8949 115.692 -32.1961 164.729C30.5847 213.815 50.8174 259.73 87.9071 318.881C124.993 378.027 178.913 450.334 309.002 552.038L309.392 551.539C179.349 449.865 125.506 377.645 88.4452 318.543C51.3869 259.448 31.0865 213.398 -31.8052 164.229C-94.7788 115.011 -191.282 114.498 -290.708 111.611C-390.142 108.733 -492.492 103.5 -567.169 45.1071C-641.896 -13.3167 -676.22 -84.2087 -691.869 -140.504C-699.692 -168.651 -702.846 -193.146 -704.044 -210.603C-704.642 -219.331 -704.752 -226.299 -704.712 -231.085C-704.692 -233.476 -704.635 -235.323 -704.583 -236.57C-704.531 -237.817 -704.484 -238.461 -704.483 -238.462L-705.117 -238.509" fill="#FFB3B3"/>
<path d="M-703.262 -240.921C-703.264 -240.875 -709.537 -81.6589 -560.24 35.0724C-485.542 93.4644 -386.234 101.858 -289.724 108.14C-193.205 114.412 -99.4825 118.59 -35.9227 168.296C27.7267 218.061 51.4142 261.092 91.4475 316.946C131.479 372.795 187.825 441.402 316.716 542.171L317.154 541.611C188.305 440.871 132.03 372.342 92.0247 316.532C52.0238 260.726 28.2619 217.575 -35.4858 167.737C-99.3223 117.842 -193.177 113.716 -289.678 107.432C-386.186 101.157 -485.339 92.7385 -559.802 34.5125C-634.318 -23.7461 -670.001 -92.5999 -687.061 -146.896C-695.591 -174.044 -699.464 -197.549 -701.205 -214.266C-702.074 -222.624 -702.412 -229.284 -702.531 -233.854C-702.591 -236.138 -702.596 -237.9 -702.587 -239.09C-702.577 -240.28 -702.552 -240.892 -702.552 -240.894L-703.262 -240.921" fill="#FFB3B3"/>
<path d="M-701.405 -243.33C-701.407 -243.276 -701.802 -91.868 -552.919 24.5375C-478.429 82.7692 -382.309 94.3548 -288.724 104.034C-195.13 113.705 -104.071 121.484 -39.649 171.863C24.8702 222.308 52.0167 262.459 94.9943 315.014C137.968 367.565 196.739 432.47 324.432 532.302L324.915 531.683C197.258 431.877 138.551 367.036 95.6012 314.517C52.6548 262 25.4356 221.751 -39.1653 171.244C-103.863 120.674 -195.068 112.935 -288.644 103.254C-382.228 93.5803 -478.181 81.978 -552.436 23.9188C-626.74 -34.1764 -663.782 -100.994 -682.254 -153.291C-691.49 -179.439 -696.082 -201.956 -698.365 -217.932C-699.507 -225.921 -700.071 -232.274 -700.348 -236.627C-700.489 -238.804 -700.556 -240.481 -700.59 -241.613C-700.622 -242.745 -700.621 -243.327 -700.622 -243.328L-701.405 -243.33" fill="#FFB3B3"/>
<path d="M-699.55 -245.733C-699.55 -245.671 -694.064 -102.075 -545.599 14.0017C-471.32 72.0715 -378.388 86.8507 -287.728 99.9284C-197.06 112.999 -108.663 124.378 -43.3754 175.43C22.0156 226.556 52.6261 263.829 98.5433 313.085C144.459 362.339 205.654 423.539 332.147 522.434L332.677 521.756C206.211 422.882 145.068 361.729 99.1725 312.499C53.2796 263.27 22.6071 225.926 -42.8457 174.753C-108.402 123.509 -196.954 112.155 -287.605 99.0765C-378.265 86.0063 -471.023 71.2202 -545.069 13.3242C-619.165 -44.6063 -657.565 -109.389 -677.45 -159.688C-687.39 -184.838 -692.702 -206.366 -695.527 -221.603C-696.939 -229.222 -697.731 -235.267 -698.168 -239.405C-698.388 -241.475 -698.519 -243.067 -698.594 -244.142C-698.67 -245.216 -698.691 -245.766 -698.691 -245.767L-699.55 -245.733" fill="#FFB3B3"/>
<path d="M-697.693 -248.132C-697.689 -248.061 -686.324 -112.279 -538.278 3.46723C-464.21 61.372 -374.47 79.3459 -286.736 95.8214C-198.993 112.291 -113.257 127.268 -47.1025 178.998C19.1633 230.807 53.241 265.203 102.099 311.159C150.954 357.114 214.57 414.609 339.862 512.566L340.439 511.829C215.163 413.885 151.582 356.419 102.74 310.478C53.8983 264.535 19.7777 230.099 -46.526 178.261C-112.938 126.345 -198.837 111.377 -286.563 94.9017C-374.297 78.4318 -463.861 60.465 -537.702 2.73089C-611.589 -55.038 -651.351 -117.786 -672.647 -166.09C-683.293 -190.241 -689.323 -210.78 -692.69 -225.279C-694.374 -232.527 -695.392 -238.265 -695.989 -242.188C-696.288 -244.15 -696.481 -245.658 -696.599 -246.674C-696.718 -247.691 -696.761 -248.209 -696.762 -248.211L-697.693 -248.132" fill="#FFB3B3"/>
<path d="M-695.835 -250.526C-695.827 -250.447 -678.582 -122.484 -530.958 -7.06765C-457.104 50.6699 -370.558 71.8407 -285.749 91.712C-200.931 111.58 -117.854 130.158 -50.8294 182.565C83.4459 287.545 99.3938 308.661 347.577 502.697L348.2 501.901C100.031 307.876 84.1031 286.776 -50.2069 181.769C-117.474 129.183 -200.716 110.599 -285.518 90.7281C-370.327 70.8597 -456.699 49.7094 -530.336 -7.86385C-604.016 -65.4694 -645.139 -126.186 -667.845 -172.493C-679.199 -195.647 -685.948 -215.2 -689.857 -228.958C-691.811 -235.838 -693.056 -241.268 -693.812 -244.977C-694.19 -246.832 -694.446 -248.255 -694.607 -249.214C-694.768 -250.173 -694.833 -250.659 -694.834 -250.66L-695.835 -250.526" fill="#FFB3B3"/>
<path d="M-693.975 -252.912C-693.961 -252.826 -670.837 -132.686 -523.638 -17.6024C-450 39.9682 -366.648 64.3312 -284.765 87.6003C-202.874 110.868 -122.452 133.046 -54.5547 186.133C81.4913 292.496 109.521 300.678 355.293 492.829L355.961 491.974C110.163 299.802 82.1002 291.596 -53.8854 185.277C-122.006 132.022 -202.589 109.825 -284.468 86.5562C-366.353 63.2892 -449.535 38.9557 -522.969 -18.4585C-596.443 -75.9027 -638.928 -134.587 -663.047 -178.901C-675.107 -201.058 -682.574 -219.623 -687.025 -232.644C-689.251 -239.154 -690.723 -244.278 -691.638 -247.771C-692.095 -249.518 -692.414 -250.857 -692.617 -251.759C-692.82 -252.659 -692.908 -253.115 -692.908 -253.117L-693.975 -252.912" fill="#FFB3B3"/>
<path d="M-692.11 -255.291C-692.09 -255.202 -663.091 -142.887 -516.317 -28.137C-442.897 29.2637 -362.744 56.8205 -283.785 83.4871C-204.82 110.152 -127.052 135.931 -58.281 189.7C10.614 243.564 55.1243 269.329 112.794 305.389C170.464 341.451 241.322 387.825 363.008 482.96L363.724 482.045C242.014 386.89 171.1 340.478 113.408 304.404C55.7162 268.33 11.2788 242.61 -57.5657 188.785C-126.537 134.863 -204.459 109.054 -283.414 82.3874C-362.374 55.7218 -442.368 28.2045 -515.602 -29.0519C-588.872 -86.336 -632.72 -142.99 -658.252 -185.311C-671.019 -206.473 -679.204 -224.052 -684.197 -236.335C-686.694 -242.476 -688.392 -247.293 -689.466 -250.572C-690.003 -252.212 -690.384 -253.468 -690.63 -254.312C-690.753 -254.732 -690.842 -255.051 -690.9 -255.264C-690.959 -255.478 -690.986 -255.582 -690.986 -255.582L-692.11 -255.291" fill="#FFB3B3"/>
<path d="M-690.241 -257.662C-690.213 -257.572 -655.341 -153.088 -508.996 -38.6727C-435.795 18.5577 -358.844 49.3056 -282.809 79.3699C-206.771 109.435 -131.653 138.816 -62.0071 193.267C7.76837 247.821 55.7641 270.704 116.368 303.468C176.975 336.233 250.243 378.898 370.723 473.093L371.485 472.118C250.962 377.89 177.597 335.162 116.956 302.38C56.3112 269.595 8.44306 246.777 -61.2458 192.294C-131.066 137.706 -206.324 108.284 -282.355 78.2209C-358.389 48.1577 -435.2 17.4542 -508.235 -39.6465C-581.3 -96.7705 -626.514 -151.394 -653.459 -191.726C-666.932 -211.892 -675.838 -228.485 -681.374 -240.031C-684.142 -245.804 -686.067 -250.315 -687.3 -253.381C-687.916 -254.913 -688.359 -256.084 -688.648 -256.87C-688.936 -257.657 -689.067 -258.052 -689.068 -258.053L-690.241 -257.662" fill="#FFB3B3"/>
<path d="M-688.367 -260.024C-688.331 -259.938 -647.591 -163.286 -501.676 -49.2074C-428.697 7.85006 -354.948 41.7893 -281.838 75.2503C-208.727 108.713 -136.256 141.698 -65.7347 196.835C4.92206 252.079 56.4059 272.078 119.947 301.544C183.491 331.015 259.164 369.974 378.439 463.224L379.247 462.191C259.908 368.887 184.091 329.845 120.498 300.354C56.902 270.861 5.60553 250.942 -64.9266 195.802C-135.595 140.552 -208.186 107.519 -281.293 74.057C-354.403 40.5971 -428.029 6.7064 -500.868 -50.241C-573.73 -107.206 -620.31 -159.8 -648.672 -198.143C-662.852 -217.314 -672.479 -232.922 -678.557 -243.733C-681.597 -249.138 -683.748 -253.343 -685.14 -256.195C-685.836 -257.621 -686.341 -258.708 -686.673 -259.438C-687.003 -260.167 -687.157 -260.532 -687.157 -260.532L-688.367 -260.024" fill="#FFB3B3"/>
<path d="M-686.482 -262.378C-686.443 -262.301 -639.838 -173.484 -494.355 -59.7419C-421.599 -2.85852 -351.055 34.2677 -280.871 71.1265C-210.684 107.988 -140.86 144.581 -69.4606 200.403C2.07974 256.338 57.0539 273.449 123.529 299.621C190.01 325.798 268.087 361.052 386.155 453.356L387.009 452.264C268.855 359.884 190.579 324.527 124.037 298.331C57.489 272.131 2.76673 255.107 -68.6057 199.309C-140.12 143.397 -210.043 106.758 -280.226 69.8981C-350.411 33.0396 -420.858 -4.03965 -493.501 -60.8343C-566.161 -117.642 -614.108 -168.208 -643.887 -204.562C-658.776 -222.74 -669.123 -237.365 -675.745 -247.44C-679.056 -252.478 -681.436 -256.378 -682.987 -259.017C-683.763 -260.336 -684.33 -261.34 -684.703 -262.013C-685.078 -262.685 -685.253 -263.021 -685.254 -263.022L-686.482 -262.378" fill="#FFB3B3"/>
<path d="M-684.589 -264.724C-684.548 -264.66 -632.084 -183.68 -487.036 -70.2769C-341.956 43.142 -217.727 90.9556 -73.1873 203.969C-0.76124 260.599 57.704 274.819 127.115 297.696C196.534 320.581 277.011 352.131 393.869 443.488L394.77 442.336C277.798 350.877 197.064 319.209 127.573 296.308C58.0727 273.401 -0.0749567 259.269 -72.2864 202.817C-217.022 89.6676 -341.249 41.8549 -486.135 -71.4291C-558.593 -128.079 -607.91 -176.617 -639.108 -210.986C-654.706 -228.17 -665.775 -241.811 -672.941 -251.151C-676.524 -255.823 -679.132 -259.419 -680.843 -261.844C-681.698 -263.058 -682.329 -263.978 -682.746 -264.595C-683.162 -265.212 -683.361 -265.518 -683.362 -265.519L-684.589 -264.724Z" fill="#FFB3B3"/>
<path d="M-682.684 -267.063C-682.647 -267.018 -624.327 -193.873 -479.716 -80.8117C-335.096 32.2526 -223.222 93.1471 -76.9138 207.536C-3.60017 264.86 58.3547 276.186 130.704 295.771C203.064 315.364 285.936 343.211 401.584 433.62L402.531 432.409C286.74 341.871 203.545 313.892 131.105 294.286C58.6549 274.674 -2.91935 263.431 -75.967 206.325C-222.382 91.856 -334.259 30.9609 -478.769 -82.0228C-551.027 -138.516 -601.714 -185.028 -634.332 -217.41C-650.641 -233.602 -662.433 -246.259 -670.146 -254.868C-674.001 -259.171 -676.838 -262.464 -678.709 -264.678C-679.645 -265.784 -680.338 -266.622 -680.799 -267.182C-681.258 -267.742 -681.48 -268.021 -681.481 -268.022L-682.684 -267.063" fill="#FFB3B3"/>
<path d="M-680.765 -269.4C-680.741 -269.374 -616.57 -204.066 -472.395 -91.3462C-328.24 21.3581 -228.718 95.3322 -80.6406 211.103C-6.43802 269.124 59.0088 277.55 134.294 293.843C209.596 310.146 294.865 334.293 409.3 423.751L410.293 422.481C295.68 332.862 210.022 308.575 134.635 292.267C59.2335 275.949 -5.76527 267.59 -79.6477 209.834C-227.741 94.05 -327.264 20.0739 -471.402 -92.6172C-543.461 -148.956 -595.521 -193.44 -629.562 -223.837C-646.582 -239.034 -659.1 -250.711 -667.359 -258.587C-671.488 -262.524 -674.554 -265.512 -676.586 -267.514C-678.618 -269.515 -679.611 -270.527 -679.614 -270.529L-680.765 -269.4" fill="#FFB3B3"/>
<path d="M-678.832 -271.733C-678.826 -271.729 -608.809 -214.258 -465.074 -101.882C-321.389 10.4555 -234.218 97.5131 -84.3669 214.671C-46.8281 244.023 -10.8091 260.094 25.5905 270.438C80.1961 285.951 135.624 288.619 198.589 304.014C261.557 319.41 332.102 347.5 417.015 413.883L418.055 412.553C304.618 323.851 216.494 303.26 138.165 290.248C98.9995 283.741 62.2892 279.113 26.0517 268.813C-10.1868 258.513 -45.9624 242.552 -83.3272 213.341C-233.097 96.2484 -320.265 9.19328 -464.035 -103.212C-535.896 -159.395 -589.33 -201.853 -624.796 -230.264C-642.529 -244.47 -655.771 -255.163 -664.579 -262.306C-668.984 -265.877 -672.28 -268.561 -674.474 -270.35C-676.668 -272.141 -677.758 -273.035 -677.761 -273.039L-678.832 -271.733" fill="#FFB3B3"/>
<path d="M-676.886 -274.069C-676.882 -274.067 -675.705 -273.297 -673.354 -271.722C-656.888 -260.699 -583.134 -210.442 -457.754 -112.417C-314.539 -0.453534 -239.718 99.6883 -88.0942 218.239C-50.1092 247.938 -12.9921 263.46 24.7576 272.752C81.389 286.687 139.415 286.663 204.24 299.589C269.068 312.515 340.729 338.346 424.73 404.015L425.816 402.626C313.553 314.84 222.964 297.946 141.69 288.232C101.053 283.372 62.7466 280.29 25.1796 271.039C-12.3886 261.787 -49.2251 246.385 -87.0077 216.849C-238.452 98.4524 -313.263 -1.68019 -456.669 -113.805C-599.999 -225.865 -675.9 -275.531 -675.921 -275.545L-676.886 -274.069Z" fill="#FFB3B3"/>
<path d="M-674.929 -276.41C-674.929 -276.41 -674.616 -276.25 -673.986 -275.918C-664.528 -270.937 -584.352 -227.653 -450.434 -122.951C-379.056 -67.1466 -327.761 -10.9642 -275.124 46.2859C-222.489 103.533 -168.514 161.845 -91.8205 221.806C-53.391 251.854 -15.173 266.825 23.9277 275.065C82.5847 287.422 143.209 284.706 209.894 295.163C276.582 305.62 349.358 329.193 432.445 394.147L433.578 392.698C322.486 305.824 229.431 292.633 145.217 286.217C103.107 283.005 63.2042 281.467 24.3068 273.266C-14.592 265.062 -52.4885 250.219 -90.6881 220.357C-167.253 160.496 -221.138 102.288 -273.771 45.0421C-326.403 -12.202 -377.786 -68.4875 -449.301 -124.4C-592.241 -236.154 -674.04 -278.02 -674.092 -278.047L-674.929 -276.41" fill="#FFB3B3"/>
<path d="M-672.964 -278.758C-672.963 -278.757 -672.632 -278.629 -671.961 -278.354C-661.889 -274.241 -576.613 -237.86 -443.113 -133.486C-371.973 -77.8664 -323.884 -18.5208 -274.171 42.1297C-224.46 102.776 -173.127 164.719 -95.5468 225.373C-56.6709 255.77 -17.353 270.19 23.0979 277.378C83.7795 288.156 147.001 282.747 215.55 290.735C284.1 298.725 357.988 320.041 440.161 384.278L441.34 382.771C331.416 296.809 235.897 287.323 148.743 284.204C105.16 282.64 63.6593 282.645 23.4323 275.493C-16.7971 268.338 -55.7519 254.052 -94.3683 223.865C-171.77 163.349 -222.982 101.56 -272.691 40.9159C-322.396 -19.724 -370.599 -79.2229 -441.934 -134.994C-584.485 -246.445 -672.188 -280.51 -672.27 -280.541L-672.964 -278.758" fill="#FFB3B3"/>
<path d="M-670.992 -281.114C-670.992 -281.114 -670.908 -281.091 -670.731 -281.039C-665.222 -279.428 -573.307 -251.533 -435.793 -144.021C-364.893 -88.5906 -320.007 -26.0845 -273.217 37.9672C-226.431 102.012 -177.743 167.592 -99.2734 228.94C-59.9508 259.688 -19.5315 273.554 22.2685 279.689C84.9745 288.888 150.794 280.786 221.205 286.307C291.62 291.827 366.62 310.893 447.876 374.41L449.101 372.843C394.724 330.327 343.037 307.606 293.684 295.554C219.648 277.478 150.901 283.378 86.1009 282.277C21.282 281.174 -39.5123 273.129 -98.0481 227.372C-176.285 166.204 -224.827 100.835 -271.611 36.7941C-318.391 -27.2398 -363.411 -89.9553 -434.568 -145.588C-576.732 -256.738 -670.343 -282.998 -670.456 -283.029L-670.992 -281.114" fill="#FFB3B3"/>
<path d="M-669.019 -283.478C-669.019 -283.478 -668.93 -283.461 -668.742 -283.424C-662.916 -282.267 -565.549 -261.725 -428.472 -154.557C-357.816 -99.3157 -316.128 -33.652 -272.263 33.8021C-228.401 101.245 -182.36 170.463 -103 232.507C-63.2305 263.606 -21.7087 276.919 21.4402 282C86.1697 289.619 154.588 278.823 226.864 281.876C299.144 284.93 375.254 301.744 455.591 364.542L456.863 362.916C403.069 320.855 351.053 299.287 300.863 288.69C225.571 272.797 154.423 281.545 87.3729 282.612C20.3015 283.677 -42.5729 277.122 -101.728 230.881C-180.799 169.059 -226.674 100.115 -270.532 32.6773C-314.385 -34.7516 -356.219 -100.685 -427.201 -156.183C-568.981 -267.032 -668.504 -285.484 -668.643 -285.508L-669.019 -283.478Z" fill="#FFB3B3"/>
<path d="M-667.044 -285.85C-667.044 -285.85 -666.952 -285.84 -666.754 -285.818C-660.604 -285.109 -557.788 -271.915 -421.152 -165.091C-350.741 -110.044 -312.248 -41.2234 -271.307 29.6329C-230.371 100.475 -186.979 173.333 -106.727 236.075C-66.5087 267.524 -23.8854 280.283 20.6124 284.31C87.3655 290.349 158.38 276.86 232.522 277.445C306.669 278.032 383.89 292.597 463.307 354.673L464.625 352.987C411.414 311.382 359.067 290.967 308.039 281.828C231.493 268.117 157.945 279.712 88.6438 282.947C53.9923 284.568 20.4078 284.106 -11.9682 277.401C-44.3434 270.694 -75.5131 257.759 -105.409 234.389C-185.312 171.917 -228.522 99.3982 -269.455 28.5626C-310.381 -42.2585 -349.025 -111.413 -419.834 -166.777C-561.235 -277.33 -666.673 -287.965 -666.832 -287.979L-667.044 -285.85Z" fill="#FFB3B3"/>
<path d="M-665.073 -288.228C-665.073 -288.228 -664.975 -288.226 -664.766 -288.217C-658.287 -287.956 -550.024 -282.101 -413.832 -175.626C-343.668 -120.775 -308.367 -48.7987 -270.349 25.4617C-232.337 99.701 -191.599 176.202 -110.454 239.642C-69.7875 271.443 -26.0601 283.646 19.7847 286.62C88.5593 291.078 162.174 274.896 238.181 273.012C314.197 271.131 392.529 283.451 471.022 344.805L472.386 343.06C419.757 301.908 367.079 282.649 315.214 274.964C237.415 263.438 161.469 277.88 89.9149 283.283C54.1395 285.989 19.4674 286.441 -13.7871 280.318C-47.0429 274.192 -78.8818 261.509 -109.09 237.897C-189.822 174.777 -230.371 98.6843 -268.378 24.452C-306.381 -49.7609 -341.828 -122.139 -412.468 -177.371C-553.491 -287.63 -664.846 -290.441 -665.017 -290.443L-665.073 -288.228Z" fill="#FFB3B3"/>
<path d="M-663.102 -290.612C-663.102 -290.612 -663 -290.617 -662.78 -290.623C-655.966 -290.808 -542.254 -292.286 -406.511 -186.161C-371.551 -158.826 -346.051 -126.392 -324.893 -91.0686C-293.158 -38.0878 -271.228 21.3966 -241.872 79.6964C-212.519 137.991 -175.708 195.108 -114.18 243.209C-73.0641 275.361 -28.2346 287.008 18.9582 288.928C89.7553 291.806 165.967 272.93 243.842 268.578C321.727 264.229 401.17 274.307 478.737 334.937L480.148 333.133C428.099 292.434 375.088 274.329 322.388 268.103C243.336 258.762 164.991 276.049 91.1873 283.619C54.2862 287.41 18.5284 288.777 -15.6057 283.236C-49.7411 277.692 -82.2521 265.26 -112.769 241.404C-194.33 177.636 -232.221 97.9742 -267.303 20.3434C-302.381 -57.2615 -334.629 -132.86 -405.101 -187.965C-545.751 -297.931 -663.021 -292.912 -663.202 -292.901L-663.102 -290.612Z" fill="#FFB3B3"/>
<path d="M-661.134 -293.003C-661.133 -293.002 -661.028 -293.014 -660.797 -293.034C-653.642 -293.665 -534.482 -302.469 -399.191 -196.695C-364.355 -169.46 -339.715 -136.292 -319.75 -99.7786C-289.8 -45.0137 -270.416 17.2748 -243.003 78.0655C-215.591 138.849 -180.105 198.15 -117.906 246.776C-76.3404 279.282 -30.407 290.372 18.1318 291.237C90.9503 292.534 169.759 270.964 249.502 264.143C289.372 260.729 329.462 260.992 369.149 269.588C408.836 278.187 448.127 295.106 486.453 325.069L487.91 323.206C436.441 282.959 383.095 266.011 329.561 261.24C249.257 254.086 168.513 274.219 92.4592 283.958C54.4322 288.832 17.5886 291.114 -17.4253 286.152C-52.4414 281.189 -85.6224 269.01 -116.449 244.913C-198.838 180.499 -234.073 97.2656 -266.23 16.237C-282.307 -24.2699 -297.608 -64.2107 -317.675 -100.913C-337.739 -137.614 -362.585 -171.08 -397.733 -198.56C-538.016 -308.236 -661.2 -295.378 -661.381 -295.355L-661.134 -293.003" fill="#FFB3B3"/>
<path d="M-659.172 -295.394C-659.171 -295.395 -659.058 -295.412 -658.817 -295.447C-655.077 -295.989 -622.036 -300.288 -573.093 -291.275C-524.145 -282.261 -459.297 -259.945 -391.871 -207.23C-357.162 -180.094 -333.381 -146.194 -314.606 -108.491C-286.442 -51.9399 -269.605 13.152 -244.133 76.4324C-218.663 139.704 -184.505 201.191 -121.633 250.343C-79.6165 283.201 -32.5802 293.734 17.3056 293.545C92.1446 293.26 173.55 268.996 255.163 259.708C295.966 255.06 336.807 254.144 376.889 261.782C416.973 269.423 456.305 285.601 494.168 315.201L495.672 313.277C444.78 273.482 391.1 257.692 336.732 254.38C255.177 249.413 172.037 272.39 93.7303 284.296C54.5794 290.254 16.6482 293.451 -19.2453 289.071C-55.1428 284.69 -88.9935 272.759 -120.129 248.422C-203.343 183.363 -235.927 96.559 -265.159 12.1327C-279.775 -30.0719 -293.543 -71.6613 -312.42 -109.578C-331.297 -147.491 -355.301 -181.739 -390.368 -209.153C-460.316 -263.843 -527.585 -286.022 -577.368 -294.513C-627.154 -303.005 -659.46 -297.82 -659.559 -297.804L-659.172 -295.394" fill="#FFB3B3"/>
<path d="M-657.211 -297.79C-657.211 -297.79 -657.092 -297.816 -656.84 -297.865C-652.928 -298.63 -618.433 -304.873 -568.139 -297.788C-517.841 -290.701 -451.75 -270.303 -384.55 -217.766C-349.97 -190.729 -327.046 -156.099 -309.46 -117.204C-283.081 -58.8683 -268.79 9.02774 -245.261 74.7972C-221.734 140.557 -188.906 204.233 -125.359 253.912C-82.8911 287.121 -34.7529 297.095 16.4788 295.852C93.3392 293.985 177.341 267.028 260.824 255.271C302.562 249.388 344.151 247.296 384.63 253.976C425.111 260.66 464.484 276.095 501.883 305.333L503.433 303.351C453.118 264.005 399.1 249.375 343.902 247.521C261.098 244.74 175.561 270.561 95.0031 284.636C54.7255 291.678 15.7075 295.789 -21.0667 291.99C-57.8439 288.188 -92.3641 276.508 -123.808 251.929C-165.836 219.069 -194.317 180.064 -215.598 138.28C-247.521 75.6049 -263.192 6.67237 -283.928 -56.8953C-304.668 -120.445 -330.514 -178.708 -383 -219.748C-452.765 -274.294 -521.427 -294.439 -572.64 -300.929C-623.856 -307.42 -657.633 -300.272 -657.733 -300.252L-657.211 -297.79" fill="#FFB3B3"/>
<path d="M-655.254 -300.188C-655.254 -300.188 -655.13 -300.22 -654.866 -300.284C-650.783 -301.274 -614.832 -309.46 -563.185 -304.301C-511.533 -299.142 -444.202 -280.658 -377.229 -228.3C-342.78 -201.365 -320.711 -166.007 -304.314 -125.92C-279.719 -65.7988 -267.974 4.90332 -246.389 73.161C-224.803 141.409 -193.307 207.272 -129.085 257.479C-86.1657 291.041 -36.9238 300.457 15.654 298.158C94.5329 294.71 181.133 265.059 266.485 250.834C309.157 243.715 351.499 240.447 392.375 246.17C433.252 251.897 472.664 266.591 509.599 295.464L511.195 293.422C461.454 254.525 407.101 241.058 351.071 240.662C267.019 240.068 179.086 268.732 96.2749 284.975C54.8734 293.102 14.7667 298.126 -22.8881 294.908C-60.546 291.688 -95.7356 280.257 -127.489 255.437C-169.93 222.253 -197.952 182.2 -218.311 139.017C-248.848 74.2457 -262.075 2.43609 -280.668 -63.4589C-289.968 -96.4047 -300.616 -127.876 -315.485 -156.244C-330.353 -184.61 -349.456 -209.876 -375.634 -230.341C-445.216 -284.746 -515.272 -302.854 -567.914 -307.341C-620.558 -311.831 -655.802 -302.722 -655.903 -302.696L-655.254 -300.188" fill="#FFB3B3"/>
<path d="M-653.301 -302.588C-653.301 -302.588 -653.171 -302.626 -652.896 -302.705C-648.641 -303.922 -611.229 -314.05 -558.229 -310.818C-505.224 -307.583 -436.652 -291.013 -369.909 -238.835C-335.591 -212.002 -314.376 -175.917 -299.168 -134.639C-276.353 -72.7299 -267.156 0.778486 -247.514 71.5233C-227.871 142.258 -197.71 210.31 -132.812 261.046C-89.4393 294.964 -39.0942 303.817 14.8277 300.464C95.7262 295.435 184.923 263.091 272.147 246.395C315.754 238.041 358.846 233.596 400.119 238.363C441.395 243.134 480.845 257.088 517.314 285.596L518.956 283.495C469.789 245.046 415.098 232.742 358.238 233.804C272.94 235.397 182.61 266.904 97.5474 285.315C55.021 294.525 13.8258 300.466 -24.7088 297.828C-63.2494 295.186 -99.1075 284.005 -131.169 258.945C-174.022 225.438 -201.589 184.338 -221.024 139.756C-250.178 72.8877 -260.961 -1.80096 -277.408 -70.0209C-285.637 -104.131 -295.287 -136.628 -309.412 -165.725C-323.535 -194.818 -342.148 -220.517 -368.267 -240.936C-437.668 -295.199 -509.12 -311.268 -563.187 -313.753C-617.258 -316.24 -653.971 -305.17 -654.07 -305.141L-653.301 -302.588" fill="#FFB3B3"/>
</g>
</g>
<defs>
<linearGradient id="paint0_linear" x1="190" y1="0" x2="190" y2="449.999" gradientUnits="userSpaceOnUse">
<stop stop-color="#37679D"/>
<stop offset="0.990086" stop-color="#E86393"/>
</linearGradient>
<clipPath id="clip0">
<rect width="380" height="457" rx="10" fill="white"/>
</clipPath>
</defs>
</svg>
